<?xml version="1.0" encoding="UTF-8"?><svg id="a" xmlns="http://www.w3.org/2000/svg" xmlns:xlink="http://www.w3.org/1999/xlink" viewBox="0 0 288 288"><defs><style>.c{fill:#fff;}.d{fill:url(#b);}</style><linearGradient id="b" x1="75.62" y1="262.44" x2="212.38" y2="25.56" gradientTransform="matrix(1, 0, 0, 1, 0, 0)" gradientUnits="userSpaceOnUse"><stop offset="0" stop-color="#e06363"/><stop offset="1" stop-color="#fcae16"/></linearGradient></defs><circle class="d" cx="144" cy="144" r="136.74"/><g><path class="c" d="M209.81,75.04V211.76c0,7-1.41,9.13-7.76,11.7H85.96c-2.32-.79-4.5-1.74-5.96-3.87-1.25-1.8-1.8-3.8-1.8-5.97,0-27.26,0-54.53,0-81.78,0-2.4,1.19-3.85,3.1-3.85s3.1,1.45,3.1,3.84c0,26.95,0,53.91,0,80.85,0,3.7,.87,4.57,4.58,4.57h110.03c3.71,0,4.59-.87,4.59-4.56V75.19c0-3.5-.93-4.45-4.4-4.45h-60.21c-2.91,0-4.31-.97-4.35-3.03-.04-2.13,1.38-3.18,4.36-3.18h60.37c6.68,0,10.44,3.78,10.44,10.5Z"/><path class="c" d="M184.4,109.84c-4-19.15-21.02-32.93-40.58-32.88-2.07,0-4.14,.11-6.17,.54-1.72,.35-2.74,1.81-2.55,3.36,.21,1.6,1.49,2.67,3.26,2.67,.61,0,1.24-.03,1.85-.11,3.63-.54,7.25-.26,10.8,.47,21.02,4.3,33.24,26.28,25.88,46.49-1.38,3.78-3.36,7.23-6.12,10.4-1.29-2.18-2.72-4.09-4.37-5.8-2.98-3.09-6.4-5.54-10.41-7.09-1.34-.52-1.22-1-.38-1.85,.49-.51,.92-1.12,1.28-1.74,2.93-5.07,3.08-10.44,1.37-15.85-1.73-5.48-5.75-8.77-11.27-9.97-5.46-1.17-10.14,.62-14.1,4.53-5.54,5.46-5.54,18.03-.32,23.26,.86,.87,.49,1.19-.43,1.54-2.38,.89-4.54,2.2-6.59,3.69-3.43,2.49-6.15,5.64-8.39,9.3-3.95-4.79-6.53-10.1-7.64-16.12-.43-2.32-1.9-3.46-3.84-3.06-1.74,.35-2.68,2.01-2.29,4.1,4.27,23.31,27.6,38.33,50.57,32.53,21.53-5.42,34.95-26.79,30.43-48.42Zm-45.26-4.01c5.74-3.71,13.22,.03,13.8,6.86,.11,1.28,.09,2.58,.04,3.88-.22,4.99-4.17,8.82-9.02,8.8-4.86-.02-8.74-3.87-8.95-8.87-.03-.57,0-1.14,0-1.8-.21-3.62,.91-6.78,4.14-8.87Zm24.18,41.59c-6.05,4.07-12.53,5.91-20.25,5.89-6.98-.11-14.05-2.44-20.34-7.13-.76-.57-.89-.97-.39-1.85,9.02-16.01,31.68-17.16,42.03-2.01,2.45,3.58,2.7,2.58-1.04,5.1Z"/><path class="c" d="M103.72,64.55c-13.98-.05-25.47,11.38-25.52,25.38-.05,13.98,11.38,25.47,25.38,25.52,13.98,.05,25.46-11.38,25.52-25.38,.05-13.98-11.38-25.47-25.38-25.52Zm-.1,44.69c-10.57-.02-19.21-8.67-19.21-19.24s8.72-19.3,19.35-19.24c10.56,.05,19.17,8.74,19.13,19.31-.04,10.56-8.72,19.19-19.28,19.17Z"/><path class="c" d="M173.3,176.78c-.49,.11-1.02,.12-1.54,.12-14.11,0-28.22,0-42.32,.02-1.62,0-3.02-.36-3.69-1.97-.89-2.12,.68-4.2,3.2-4.24,3.82-.04,7.64,0,11.47,0h10.07c7.18,0,14.37,0,21.55,0,2.11,0,3.39,.96,3.62,2.63,.23,1.69-.69,3.07-2.37,3.46Z"/><path class="c" d="M172.24,194.28c-5.12,.03-10.23,0-15.35,0h-6.2c-7.13,0-14.26,0-21.39,0-2.16,0-3.36-.85-3.67-2.55-.29-1.52,.51-2.89,1.96-3.42,.6-.22,1.21-.23,1.83-.23,14.16,0,28.32,0,42.48,0,2.1,0,3.36,.81,3.73,2.32,.52,2.14-.94,3.87-3.39,3.88Z"/><path class="c" d="M118.4,173.92c-.07,1.62-1.54,3.02-3.15,2.97-1.7-.06-3.05-1.55-2.96-3.28,.09-1.64,1.59-2.99,3.2-2.89,1.64,.1,2.98,1.57,2.91,3.2Z"/><path class="c" d="M118.4,191.21c-.02,1.69-1.54,3.15-3.2,3.05-1.65-.09-2.95-1.52-2.91-3.18,.05-1.64,1.49-3.03,3.11-2.99,1.63,.04,3.02,1.49,3,3.11Z"/><path class="c" d="M84.38,119.43c.03,1.61-1.43,3.1-3.04,3.13-1.61,.03-3.1-1.43-3.13-3.05-.03-1.6,1.43-3.1,3.05-3.12,1.6-.03,3.1,1.43,3.12,3.04Z"/><path class="c" d="M115.18,86.06c-.27,.49-.65,.93-1.05,1.33-3.68,3.71-7.37,7.4-11.07,11.08-2.1,2.1-3.58,2.09-5.69,0-1.54-1.53-3.07-3.06-4.61-4.61-.7-.7-1.29-1.48-1.25-2.47-.03-1.35,.6-2.26,1.68-2.84,1.1-.58,2.24-.49,3.19,.3,1.03,.86,2.02,1.79,2.89,2.8,.75,.86,1.17,.7,1.9-.04,2.84-2.94,5.75-5.8,8.64-8.68,.75-.75,1.55-1.36,2.68-1.37,2.32,0,3.81,2.48,2.68,4.5Z"/></g></svg>