<?xml version="1.0" encoding="UTF-8"?><svg id="a" xmlns="http://www.w3.org/2000/svg" xmlns:xlink="http://www.w3.org/1999/xlink" viewBox="0 0 288 288"><defs><style>.c{fill:#fff;}.d{fill:url(#b);}</style><linearGradient id="b" x1="75.62" y1="262.44" x2="212.38" y2="25.56" gradientTransform="matrix(1, 0, 0, 1, 0, 0)" gradientUnits="userSpaceOnUse"><stop offset="0" stop-color="#e06363"/><stop offset="1" stop-color="#fcae16"/></linearGradient></defs><circle class="d" cx="144" cy="144" r="136.74"/><g><path class="c" d="M147.94,144.52c-.11,2.24-.09,4.48,0,6.72,.04,1.03-.27,1.28-1.28,1.28-9.22-.05-18.44-.03-27.67-.03-7.19,0-14.37-.03-21.56,.03-1.17,0-1.51-.25-1.45-1.44,.11-2.23,.09-4.48,0-6.72-.04-1.03,.26-1.28,1.28-1.28,8.23,.05,16.46,.03,24.7,.03s16.36,.02,24.53-.04c1.17,0,1.5,.27,1.45,1.45Z"/><path class="c" d="M199.84,122.84c-.12,2.13-.12,4.28,0,6.41,.07,1.22-.35,1.42-1.47,1.41-16.82-.04-33.65-.02-50.48-.02s-33.54-.02-50.31,.03c-1.3,0-1.68-.3-1.6-1.6,.12-2.13,.12-4.27,0-6.4-.06-1.2,.32-1.44,1.47-1.44,14.16,.05,28.33,.03,42.5,.03,19.43,0,38.86,.02,58.29-.03,1.32,0,1.67,.32,1.6,1.61Z"/><path class="c" d="M199.84,107.27c.1,1.37-.4,1.56-1.64,1.56-16.77-.05-33.54-.03-50.31-.03s-33.54-.02-50.31,.03c-1.3,0-1.67-.31-1.59-1.6,.12-2.13,.12-4.28,0-6.41-.07-1.22,.35-1.43,1.48-1.43,12.4,.05,24.79,.03,37.19,.03,21.15,0,42.29,.02,63.44-.04,1.46,0,1.83,.4,1.76,1.79-.12,2.02-.13,4.07,0,6.09Z"/><path class="c" d="M227.98,75.15c0-1.43-.59-1.41-1.64-1.41-52.19,0-104.4,0-156.59,0-.62,0-1.25-.03-1.87-.04v125.67c.62,.02,1.25,.05,1.87,.05,32.66,0,65.32,.02,97.99-.03,1.4,0,1.82,.31,1.78,1.76-.11,4.32-.04,8.64-.04,13.14,3.95-1.28,7.91-2.25,11.6-3.82,4.52-1.92,8.73-2.01,13.24,0,3.31,1.47,6.9,2.27,10.34,3.45,1.03,.35,1.24,.1,1.22-.92-.04-3.9,.06-7.82-.05-11.72-.04-1.45,.25-1.94,1.83-1.91,6.3,.11,12.61,.02,18.91,.07,1.05,0,1.39-.18,1.39-1.32-.03-41-.04-81.99,0-122.98Zm-32.51,125.9c-.09-.05-.2-.06-.3-.1-2.51-.8-5.03-2.22-7.54-2.21-2.52,0-5.06,1.37-7.54,2.26-1.12,.4-1.28,.11-1.26-.94,.06-3.06,.02-6.13,.02-9.39,5.06,1.91,10,2.2,15.02,.87,2.6-.69,2.61-.67,2.61,2.01,0,2.24-.02,4.47,0,6.71,0,.8-.12,1.27-1.03,.79Zm-7.75-18.06c-8.04-.1-14.02-6.21-14.06-14.1-.04-7.74,6.41-13.96,14.07-13.93,7.68,.03,13.99,6.35,13.98,14.03,0,7.65-6.33,14.09-13.99,14.01Zm30.87,5.53c0,1.36-.38,1.6-1.63,1.56-3.22-.09-6.47-.1-9.69,0-1.23,.04-1.59-.37-1.41-1.5,.03-.14,.02-.31,0-.46-.24-2.72,.49-4.99,1.97-7.41,8.48-13.87-.38-32.52-16.41-34.84-14.4-2.08-26.73,8.22-27.15,22.8-.13,4.68,1.11,9.1,3.8,12.96,1.08,1.54,1.51,3.05,1.45,4.88-.12,3.53-.04,3.53-3.55,3.53-29.01,0-58.04,0-87.05,.03-1.32,0-1.71-.24-1.71-1.65,.05-34.54,.05-69.08,0-103.61,0-1.53,.5-1.72,1.82-1.72,22.97,.04,45.95,.03,68.92,.03s45.95,0,68.93-.03c1.3,0,1.73,.19,1.73,1.65-.05,34.59-.05,69.17,0,103.76Z"/><path class="c" d="M147.94,144.52c-.11,2.24-.09,4.48,0,6.72,.04,1.03-.27,1.28-1.28,1.28-9.22-.05-18.44-.03-27.67-.03-7.19,0-14.37-.03-21.56,.03-1.17,0-1.51-.25-1.45-1.44,.11-2.23,.09-4.48,0-6.72-.04-1.03,.26-1.28,1.28-1.28,8.23,.05,16.46,.03,24.7,.03s16.36,.02,24.53-.04c1.17,0,1.5,.27,1.45,1.45Z"/><path class="c" d="M199.84,122.84c-.12,2.13-.12,4.28,0,6.41,.07,1.22-.35,1.42-1.47,1.41-16.82-.04-33.65-.02-50.48-.02s-33.54-.02-50.31,.03c-1.3,0-1.68-.3-1.6-1.6,.12-2.13,.12-4.27,0-6.4-.06-1.2,.32-1.44,1.47-1.44,14.16,.05,28.33,.03,42.5,.03,19.43,0,38.86,.02,58.29-.03,1.32,0,1.67,.32,1.6,1.61Z"/><path class="c" d="M95.98,107.23c.12-2.13,.12-4.28,0-6.41-.07-1.22,.35-1.43,1.48-1.43,12.4,.05,24.79,.03,37.19,.03,21.15,0,42.29,.02,63.44-.04,1.46,0,1.83,.4,1.76,1.79-.12,2.02-.13,4.07,0,6.09,.1,1.37-.4,1.56-1.64,1.56-16.77-.05-33.54-.03-50.31-.03s-33.54-.02-50.31,.03c-1.3,0-1.67-.31-1.59-1.6Z"/><path class="c" d="M198.2,108.83c-16.77-.05-33.54-.03-50.31-.03s-33.54-.02-50.31,.03c-1.3,0-1.67-.31-1.59-1.6,.12-2.13,.12-4.28,0-6.41-.07-1.22,.35-1.43,1.48-1.43,12.4,.05,24.79,.03,37.19,.03,21.15,0,42.29,.02,63.44-.04,1.46,0,1.83,.4,1.76,1.79-.12,2.02-.13,4.07,0,6.09,.1,1.37-.4,1.56-1.64,1.56Z"/><path class="c" d="M199.84,129.25c.07,1.22-.35,1.42-1.47,1.41-16.82-.04-33.65-.02-50.48-.02s-33.54-.02-50.31,.03c-1.3,0-1.68-.3-1.6-1.6,.12-2.13,.12-4.27,0-6.4-.06-1.2,.32-1.44,1.47-1.44,14.16,.05,28.33,.03,42.5,.03,19.43,0,38.86,.02,58.29-.03,1.32,0,1.67,.32,1.6,1.61-.12,2.13-.12,4.28,0,6.41Z"/><path class="c" d="M147.93,151.24c.04,1.03-.27,1.28-1.28,1.28-9.22-.05-18.44-.03-27.67-.03-7.19,0-14.37-.03-21.56,.03-1.17,0-1.51-.25-1.45-1.44,.11-2.23,.09-4.48,0-6.72-.04-1.03,.26-1.28,1.28-1.28,8.23,.05,16.46,.03,24.7,.03s16.36,.02,24.53-.04c1.17,0,1.5,.27,1.45,1.45-.11,2.24-.09,4.48,0,6.72Z"/></g></svg>