<?xml version="1.0" encoding="UTF-8"?><svg id="a" xmlns="http://www.w3.org/2000/svg" xmlns:xlink="http://www.w3.org/1999/xlink" viewBox="0 0 288 288"><defs><style>.c{fill:#fff;}.d{fill:url(#b);}</style><linearGradient id="b" x1="75.62" y1="262.44" x2="212.38" y2="25.56" gradientTransform="matrix(1, 0, 0, 1, 0, 0)" gradientUnits="userSpaceOnUse"><stop offset="0" stop-color="#e06363"/><stop offset="1" stop-color="#fcae16"/></linearGradient></defs><circle class="d" cx="144" cy="144" r="136.74"/><path class="c" d="M161.2,160.63c-.15-3.85-1.45-7.27-3.88-10.27-1.96-2.41-4.43-4.11-7.34-5.27,7.26-6.19,8.38-13.65,3-19.34-4.89-5.17-13-5.16-17.89,.02-5.37,5.68-4.23,13.15,2.99,19.29-6.87,3.02-10.7,8.11-11.19,15.56-.14,2.08,.83,3.05,2.89,3.05,9.51,.01,19.02,.01,28.53,0,2.05,0,2.98-.97,2.9-3.05Zm-24.52-26.4c-.02-3.99,3.28-7.35,7.27-7.37,4.1-.02,7.44,3.27,7.45,7.34,0,4.01-3.26,7.33-7.27,7.37-4.07,.04-7.42-3.26-7.45-7.35Zm-4.45,24.49c.15-4.64,5.51-9.43,10.9-9.75,6.25-.37,11.85,3.86,12.82,9.75h-23.72Zm28.97,1.91c-.15-3.85-1.45-7.27-3.88-10.27-1.96-2.41-4.43-4.11-7.34-5.27,7.26-6.19,8.38-13.65,3-19.34-4.89-5.17-13-5.16-17.89,.02-5.37,5.68-4.23,13.15,2.99,19.29-6.87,3.02-10.7,8.11-11.19,15.56-.14,2.08,.83,3.05,2.89,3.05,9.51,.01,19.02,.01,28.53,0,2.05,0,2.98-.97,2.9-3.05Zm-24.52-26.4c-.02-3.99,3.28-7.35,7.27-7.37,4.1-.02,7.44,3.27,7.45,7.34,0,4.01-3.26,7.33-7.27,7.37-4.07,.04-7.42-3.26-7.45-7.35Zm-4.45,24.49c.15-4.64,5.51-9.43,10.9-9.75,6.25-.37,11.85,3.86,12.82,9.75h-23.72Zm28.97,1.91c-.15-3.85-1.45-7.27-3.88-10.27-1.96-2.41-4.43-4.11-7.34-5.27,7.26-6.19,8.38-13.65,3-19.34-4.89-5.17-13-5.16-17.89,.02-5.37,5.68-4.23,13.15,2.99,19.29-6.87,3.02-10.7,8.11-11.19,15.56-.14,2.08,.83,3.05,2.89,3.05,9.51,.01,19.02,.01,28.53,0,2.05,0,2.98-.97,2.9-3.05Zm-24.52-26.4c-.02-3.99,3.28-7.35,7.27-7.37,4.1-.02,7.44,3.27,7.45,7.34,0,4.01-3.26,7.33-7.27,7.37-4.07,.04-7.42-3.26-7.45-7.35Zm-4.45,24.49c.15-4.64,5.51-9.43,10.9-9.75,6.25-.37,11.85,3.86,12.82,9.75h-23.72Zm28.97,1.91c-.15-3.85-1.45-7.27-3.88-10.27-1.96-2.41-4.43-4.11-7.34-5.27,7.26-6.19,8.38-13.65,3-19.34-4.89-5.17-13-5.16-17.89,.02-5.37,5.68-4.23,13.15,2.99,19.29-6.87,3.02-10.7,8.11-11.19,15.56-.14,2.08,.83,3.05,2.89,3.05,9.51,.01,19.02,.01,28.53,0,2.05,0,2.98-.97,2.9-3.05Zm-24.52-26.4c-.02-3.99,3.28-7.35,7.27-7.37,4.1-.02,7.44,3.27,7.45,7.34,0,4.01-3.26,7.33-7.27,7.37-4.07,.04-7.42-3.26-7.45-7.35Zm-4.45,24.49c.15-4.64,5.51-9.43,10.9-9.75,6.25-.37,11.85,3.86,12.82,9.75h-23.72Zm28.97,1.91c-.15-3.85-1.45-7.27-3.88-10.27-1.96-2.41-4.43-4.11-7.34-5.27,7.26-6.19,8.38-13.65,3-19.34-4.89-5.17-13-5.16-17.89,.02-5.37,5.68-4.23,13.15,2.99,19.29-6.87,3.02-10.7,8.11-11.19,15.56-.14,2.08,.83,3.05,2.89,3.05,9.51,.01,19.02,.01,28.53,0,2.05,0,2.98-.97,2.9-3.05Zm-24.52-26.4c-.02-3.99,3.28-7.35,7.27-7.37,4.1-.02,7.44,3.27,7.45,7.34,0,4.01-3.26,7.33-7.27,7.37-4.07,.04-7.42-3.26-7.45-7.35Zm-4.45,24.49c.15-4.64,5.51-9.43,10.9-9.75,6.25-.37,11.85,3.86,12.82,9.75h-23.72Zm28.97,1.91c-.15-3.85-1.45-7.27-3.88-10.27-1.96-2.41-4.43-4.11-7.34-5.27,7.26-6.19,8.38-13.65,3-19.34-4.89-5.17-13-5.16-17.89,.02-5.37,5.68-4.23,13.15,2.99,19.29-6.87,3.02-10.7,8.11-11.19,15.56-.14,2.08,.83,3.05,2.89,3.05,9.51,.01,19.02,.01,28.53,0,2.05,0,2.98-.97,2.9-3.05Zm-24.52-26.4c-.02-3.99,3.28-7.35,7.27-7.37,4.1-.02,7.44,3.27,7.45,7.34,0,4.01-3.26,7.33-7.27,7.37-4.07,.04-7.42-3.26-7.45-7.35Zm-4.45,24.49c.15-4.64,5.51-9.43,10.9-9.75,6.25-.37,11.85,3.86,12.82,9.75h-23.72Zm28.97,1.91c-.15-3.85-1.45-7.27-3.88-10.27-1.96-2.41-4.43-4.11-7.34-5.27,7.26-6.19,8.38-13.65,3-19.34-4.89-5.17-13-5.16-17.89,.02-5.37,5.68-4.23,13.15,2.99,19.29-6.87,3.02-10.7,8.11-11.19,15.56-.14,2.08,.83,3.05,2.89,3.05,9.51,.01,19.02,.01,28.53,0,2.05,0,2.98-.97,2.9-3.05Zm-24.52-26.4c-.02-3.99,3.28-7.35,7.27-7.37,4.1-.02,7.44,3.27,7.45,7.34,0,4.01-3.26,7.33-7.27,7.37-4.07,.04-7.42-3.26-7.45-7.35Zm-4.45,24.49c.15-4.64,5.51-9.43,10.9-9.75,6.25-.37,11.85,3.86,12.82,9.75h-23.72Zm28.97,1.91c-.15-3.85-1.45-7.27-3.88-10.27-1.96-2.41-4.43-4.11-7.34-5.27,7.26-6.19,8.38-13.65,3-19.34-4.89-5.17-13-5.16-17.89,.02-5.37,5.68-4.23,13.15,2.99,19.29-6.87,3.02-10.7,8.11-11.19,15.56-.14,2.08,.83,3.05,2.89,3.05,9.51,.01,19.02,.01,28.53,0,2.05,0,2.98-.97,2.9-3.05Zm-24.52-26.4c-.02-3.99,3.28-7.35,7.27-7.37,4.1-.02,7.44,3.27,7.45,7.34,0,4.01-3.26,7.33-7.27,7.37-4.07,.04-7.42-3.26-7.45-7.35Zm-4.45,24.49c.15-4.64,5.51-9.43,10.9-9.75,6.25-.37,11.85,3.86,12.82,9.75h-23.72Zm28.97,1.91c-.15-3.85-1.45-7.27-3.88-10.27-1.96-2.41-4.43-4.11-7.34-5.27,7.26-6.19,8.38-13.65,3-19.34-4.89-5.17-13-5.16-17.89,.02-5.37,5.68-4.23,13.15,2.99,19.29-6.87,3.02-10.7,8.11-11.19,15.56-.14,2.08,.83,3.05,2.89,3.05,9.51,.01,19.02,.01,28.53,0,2.05,0,2.98-.97,2.9-3.05Zm-24.52-26.4c-.02-3.99,3.28-7.35,7.27-7.37,4.1-.02,7.44,3.27,7.45,7.34,0,4.01-3.26,7.33-7.27,7.37-4.07,.04-7.42-3.26-7.45-7.35Zm-4.45,24.49c.15-4.64,5.51-9.43,10.9-9.75,6.25-.37,11.85,3.86,12.82,9.75h-23.72Zm28.97,1.91c-.15-3.85-1.45-7.27-3.88-10.27-1.96-2.41-4.43-4.11-7.34-5.27,7.26-6.19,8.38-13.65,3-19.34-4.89-5.17-13-5.16-17.89,.02-5.37,5.68-4.23,13.15,2.99,19.29-6.87,3.02-10.7,8.11-11.19,15.56-.14,2.08,.83,3.05,2.89,3.05,9.51,.01,19.02,.01,28.53,0,2.05,0,2.98-.97,2.9-3.05Zm-24.52-26.4c-.02-3.99,3.28-7.35,7.27-7.37,4.1-.02,7.44,3.27,7.45,7.34,0,4.01-3.26,7.33-7.27,7.37-4.07,.04-7.42-3.26-7.45-7.35Zm-4.45,24.49c.15-4.64,5.51-9.43,10.9-9.75,6.25-.37,11.85,3.86,12.82,9.75h-23.72Zm28.97,1.91c-.15-3.85-1.45-7.27-3.88-10.27-1.96-2.41-4.43-4.11-7.34-5.27,7.26-6.19,8.38-13.65,3-19.34-4.89-5.17-13-5.16-17.89,.02-5.37,5.68-4.23,13.15,2.99,19.29-6.87,3.02-10.7,8.11-11.19,15.56-.14,2.08,.83,3.05,2.89,3.05,9.51,.01,19.02,.01,28.53,0,2.05,0,2.98-.97,2.9-3.05Zm-24.52-26.4c-.02-3.99,3.28-7.35,7.27-7.37,4.1-.02,7.44,3.27,7.45,7.34,0,4.01-3.26,7.33-7.27,7.37-4.07,.04-7.42-3.26-7.45-7.35Zm-4.45,24.49c.15-4.64,5.51-9.43,10.9-9.75,6.25-.37,11.85,3.86,12.82,9.75h-23.72Zm28.97,1.91c-.15-3.85-1.45-7.27-3.88-10.27-1.96-2.41-4.43-4.11-7.34-5.27,7.26-6.19,8.38-13.65,3-19.34-4.89-5.17-13-5.16-17.89,.02-5.37,5.68-4.23,13.15,2.99,19.29-6.87,3.02-10.7,8.11-11.19,15.56-.14,2.08,.83,3.05,2.89,3.05,9.51,.01,19.02,.01,28.53,0,2.05,0,2.98-.97,2.9-3.05Zm-24.52-26.4c-.02-3.99,3.28-7.35,7.27-7.37,4.1-.02,7.44,3.27,7.45,7.34,0,4.01-3.26,7.33-7.27,7.37-4.07,.04-7.42-3.26-7.45-7.35Zm-4.45,24.49c.15-4.64,5.51-9.43,10.9-9.75,6.25-.37,11.85,3.86,12.82,9.75h-23.72Zm87.83,34.84c-1.41-12.94-11.64-22.45-24.25-22.5-5.48-.02-10.45,1.59-14.85,4.88-.46,.35-.81,.8-1.49,.1-3.5-3.59-7.06-7.12-10.62-10.65-.42-.42-.56-.68-.12-1.22,4.26-5.22,6.6-11.22,7.1-17.92,.06-.83,.38-.96,1.12-.99,7.61-.26,15.23-.55,22.84-.87,.84-.04,1.23,.19,1.58,.98,1.99,4.46,6.62,6.75,11.2,5.63,4.47-1.09,7.7-5.33,7.47-9.81-.25-4.8-3.66-8.6-8.4-9.34-4.52-.71-8.97,2.02-10.53,6.55-.31,.91-.76,1.1-1.62,1.12-3.78,.11-7.56,.29-11.34,.44v.34c-2.91,0-5.83,0-8.74,0-1.17,0-2.57,.41-3.45-.1-.82-.48-.53-2.04-.79-3.11-1.86-7.94-6.1-14.3-12.72-19.05-.71-.51-.93-.81-.42-1.66,1.28-2.14,2.47-4.34,3.61-6.57,.41-.8,.84-.95,1.67-.69,2.19,.68,4.42,.66,6.67,.24,7.64-1.41,13.07-9.29,11.61-16.88-1.58-8.26-9.19-13.66-17.07-12.08-5.88,1.17-9.86,4.63-11.56,10.35-1.71,5.74-.18,10.8,4.13,14.95,.64,.62,.72,.99,.28,1.76-1.26,2.15-2.46,4.35-3.6,6.58-.44,.85-.85,.84-1.66,.53-11.47-4.43-22.11-2.89-31.88,4.56-.8,.61-1.18,.48-1.81-.16-3.33-3.39-6.69-6.76-10.09-10.09-.68-.66-.72-1.06-.15-1.83,3.01-3.98,4.64-8.51,4.82-13.48,.52-14.67-11.01-26.15-25.7-25.66-14.95,.49-26.18,15-22.92,29.6,3.94,17.67,24.05,25.26,38.76,14.6,.79-.57,1.12-.41,1.71,.19,3.37,3.43,6.77,6.83,10.2,10.19,.65,.63,.66,.98,.1,1.69-5.73,7.22-7.92,15.42-6.64,24.53,.14,.98,0,1.29-.98,1.54-6.36,1.66-12.71,3.38-19.05,5.14-.98,.27-1.45,.15-2.05-.77-3.15-4.9-9.32-6.78-14.68-4.6-5.34,2.17-8.45,7.75-7.45,13.37,1.09,6.14,6.67,10.49,12.91,10.06,6.18-.43,11.09-5.57,11.25-11.85,.02-.85,.19-1.21,1.08-1.45,6.51-1.7,13.01-3.46,19.49-5.25,.78-.22,1.04-.03,1.33,.7,2.53,6.36,6.64,11.44,12.4,15.16,.72,.46,.81,.82,.42,1.57-1.46,2.8-2.9,5.62-4.25,8.48-.37,.79-.75,.87-1.51,.66-3.94-1.11-7.78-.73-11.52,.91-7.71,3.38-11.83,12.24-9.48,20.38,2.39,8.25,10.53,13.68,18.76,12.37,7.28-1.16,12.28-5.29,14.29-12.39,2.03-7.17-.13-13.3-5.81-18.12-.59-.5-.81-.83-.41-1.59,1.46-2.8,2.86-5.64,4.24-8.48,.35-.73,.71-.91,1.52-.63,11.19,3.9,21.5,2.19,30.89-5.01,.75-.58,1.09-.48,1.7,.14,3.33,3.39,6.69,6.76,10.09,10.08,.72,.7,.8,1.1,.17,1.95-2.96,3.95-4.54,8.43-4.76,13.35-.73,16.16,13.98,28.54,29.8,25.1,11.92-2.59,20.45-14.15,19.16-25.97Zm-9.69-56.87c2.73,.04,4.92,2.31,4.85,5.03-.06,2.66-2.29,4.8-4.96,4.77-2.72-.03-4.91-2.29-4.85-5.03,.06-2.65,2.29-4.81,4.96-4.77Zm-130.8-29.45h25.36c-3.56,4.46-15.77,8.17-25.36,0Zm12.74-12.29c4.57-.06,8.5,2.92,9.56,7.3h-18.77c.9-4.16,4.81-7.25,9.21-7.3Zm-4.73-9.87c.03-2.66,2.22-4.84,4.88-4.85,2.73,0,4.95,2.22,4.93,4.96-.02,2.64-2.24,4.85-4.88,4.85-2.73,0-4.96-2.23-4.93-4.96Zm19.67,20.04c-.15-5.5-2.32-9.75-6.79-12.68-1.08-.71-.37-1.08,0-1.61,2.54-3.56,2.46-8.23-.18-11.71-2.58-3.39-7.09-4.7-11.12-3.24-4.1,1.49-6.71,5.39-6.47,9.76,.11,2.04,.8,3.88,2.08,5.49,.33,.42,.64,.65-.04,1.17-5.1,3.92-6.53,6.55-7.05,12.66-4.87-4.34-7.73-16.15-.28-25.08,7.28-8.72,20.46-9.46,28.62-1.63,8.61,8.27,7.17,20.82,1.22,26.87Zm-26.93,63.48c-4.1,.03-7.45-3.26-7.47-7.33-.02-4.01,3.25-7.34,7.25-7.39,4.08-.05,7.43,3.24,7.47,7.33,.04,3.99-3.26,7.36-7.24,7.39Zm48.98,29.68c-.06,6.65-5.63,12.08-12.34,12.05-6.83-.03-12.28-5.61-12.21-12.48,.08-6.67,5.63-12.1,12.33-12.06,6.83,.04,12.28,5.62,12.21,12.49Zm31.92-103.38c.03-5.43,4.45-9.79,9.91-9.77,5.4,.03,9.78,4.5,9.73,9.94-.05,5.35-4.45,9.69-9.83,9.69-5.42,0-9.83-4.44-9.8-9.87Zm-17.42,76.15c-14.69-.07-26.79-12.24-26.77-26.94,.02-14.95,12.12-27.1,26.93-27.06,15.11,.04,27.1,12.11,27.07,27.23-.03,14.79-12.29,26.84-27.23,26.77Zm38.79,39.34h25.52c-5.04,6.2-16.24,6.24-25.52,0Zm12.32-12.32c4.72-.29,8.8,2.62,10.11,7.32h-18.77c.64-3.83,4.48-7.07,8.67-7.32Zm-4.23-9.95c.06-2.66,2.29-4.81,4.94-4.79,2.73,.03,4.92,2.29,4.87,5.02-.05,2.64-2.3,4.82-4.94,4.79-2.73-.03-4.93-2.3-4.87-5.02Zm19.68,20.15c-.16-5.58-2.36-9.85-6.89-12.8-1.07-.7-.23-1.05,.08-1.5,2.32-3.46,2.6-7.09,.52-10.68-2.12-3.66-5.5-5.32-9.69-4.8-4.04,.5-6.82,2.84-8.11,6.75-1.05,3.18-.47,6.16,1.5,8.84,.46,.62,.69,.92-.16,1.48-4.47,2.94-6.63,7.19-6.79,12.5-5.81-3.58-6.42-16.79-1.1-24.07,6.76-9.25,20.09-10.79,28.69-3.28,9.12,7.96,8.31,20.78,1.95,27.58Zm-53.04-57.91c-1.96-2.41-4.43-4.11-7.34-5.27,7.26-6.19,8.38-13.65,3-19.34-4.89-5.17-13-5.16-17.89,.02-5.37,5.68-4.23,13.15,2.99,19.29-6.87,3.02-10.7,8.11-11.19,15.56-.14,2.08,.83,3.05,2.89,3.05,9.51,.01,19.02,.01,28.53,0,2.05,0,2.98-.97,2.9-3.05-.15-3.85-1.45-7.27-3.88-10.27Zm-20.64-16.13c-.02-3.99,3.28-7.35,7.27-7.37,4.1-.02,7.44,3.27,7.45,7.34,0,4.01-3.26,7.33-7.27,7.37-4.07,.04-7.42-3.26-7.45-7.35Zm-4.45,24.49c.15-4.64,5.51-9.43,10.9-9.75,6.25-.37,11.85,3.86,12.82,9.75h-23.72Zm28.97,1.91c-.15-3.85-1.45-7.27-3.88-10.27-1.96-2.41-4.43-4.11-7.34-5.27,7.26-6.19,8.38-13.65,3-19.34-4.89-5.17-13-5.16-17.89,.02-5.37,5.68-4.23,13.15,2.99,19.29-6.87,3.02-10.7,8.11-11.19,15.56-.14,2.08,.83,3.05,2.89,3.05,9.51,.01,19.02,.01,28.53,0,2.05,0,2.98-.97,2.9-3.05Zm-24.52-26.4c-.02-3.99,3.28-7.35,7.27-7.37,4.1-.02,7.44,3.27,7.45,7.34,0,4.01-3.26,7.33-7.27,7.37-4.07,.04-7.42-3.26-7.45-7.35Zm-4.45,24.49c.15-4.64,5.51-9.43,10.9-9.75,6.25-.37,11.85,3.86,12.82,9.75h-23.72Zm28.97,1.91c-.15-3.85-1.45-7.27-3.88-10.27-1.96-2.41-4.43-4.11-7.34-5.27,7.26-6.19,8.38-13.65,3-19.34-4.89-5.17-13-5.16-17.89,.02-5.37,5.68-4.23,13.15,2.99,19.29-6.87,3.02-10.7,8.11-11.19,15.56-.14,2.08,.83,3.05,2.89,3.05,9.51,.01,19.02,.01,28.53,0,2.05,0,2.98-.97,2.9-3.05Zm-24.52-26.4c-.02-3.99,3.28-7.35,7.27-7.37,4.1-.02,7.44,3.27,7.45,7.34,0,4.01-3.26,7.33-7.27,7.37-4.07,.04-7.42-3.26-7.45-7.35Zm-4.45,24.49c.15-4.64,5.51-9.43,10.9-9.75,6.25-.37,11.85,3.86,12.82,9.75h-23.72Zm28.97,1.91c-.15-3.85-1.45-7.27-3.88-10.27-1.96-2.41-4.43-4.11-7.34-5.27,7.26-6.19,8.38-13.65,3-19.34-4.89-5.17-13-5.16-17.89,.02-5.37,5.68-4.23,13.15,2.99,19.29-6.87,3.02-10.7,8.11-11.19,15.56-.14,2.08,.83,3.05,2.89,3.05,9.51,.01,19.02,.01,28.53,0,2.05,0,2.98-.97,2.9-3.05Zm-24.52-26.4c-.02-3.99,3.28-7.35,7.27-7.37,4.1-.02,7.44,3.27,7.45,7.34,0,4.01-3.26,7.33-7.27,7.37-4.07,.04-7.42-3.26-7.45-7.35Zm-4.45,24.49c.15-4.64,5.51-9.43,10.9-9.75,6.25-.37,11.85,3.86,12.82,9.75h-23.72Zm28.97,1.91c-.15-3.85-1.45-7.27-3.88-10.27-1.96-2.41-4.43-4.11-7.34-5.27,7.26-6.19,8.38-13.65,3-19.34-4.89-5.17-13-5.16-17.89,.02-5.37,5.68-4.23,13.15,2.99,19.29-6.87,3.02-10.7,8.11-11.19,15.56-.14,2.08,.83,3.05,2.89,3.05,9.51,.01,19.02,.01,28.53,0,2.05,0,2.98-.97,2.9-3.05Zm-24.52-26.4c-.02-3.99,3.28-7.35,7.27-7.37,4.1-.02,7.44,3.27,7.45,7.34,0,4.01-3.26,7.33-7.27,7.37-4.07,.04-7.42-3.26-7.45-7.35Zm-4.45,24.49c.15-4.64,5.51-9.43,10.9-9.75,6.25-.37,11.85,3.86,12.82,9.75h-23.72Zm28.97,1.91c-.15-3.85-1.45-7.27-3.88-10.27-1.96-2.41-4.43-4.11-7.34-5.27,7.26-6.19,8.38-13.65,3-19.34-4.89-5.17-13-5.16-17.89,.02-5.37,5.68-4.23,13.15,2.99,19.29-6.87,3.02-10.7,8.11-11.19,15.56-.14,2.08,.83,3.05,2.89,3.05,9.51,.01,19.02,.01,28.53,0,2.05,0,2.98-.97,2.9-3.05Zm-24.52-26.4c-.02-3.99,3.28-7.35,7.27-7.37,4.1-.02,7.44,3.27,7.45,7.34,0,4.01-3.26,7.33-7.27,7.37-4.07,.04-7.42-3.26-7.45-7.35Zm-4.45,24.49c.15-4.64,5.51-9.43,10.9-9.75,6.25-.37,11.85,3.86,12.82,9.75h-23.72Zm28.97,1.91c-.15-3.85-1.45-7.27-3.88-10.27-1.96-2.41-4.43-4.11-7.34-5.27,7.26-6.19,8.38-13.65,3-19.34-4.89-5.17-13-5.16-17.89,.02-5.37,5.68-4.23,13.15,2.99,19.29-6.87,3.02-10.7,8.11-11.19,15.56-.14,2.08,.83,3.05,2.89,3.05,9.51,.01,19.02,.01,28.53,0,2.05,0,2.98-.97,2.9-3.05Zm-24.52-26.4c-.02-3.99,3.28-7.35,7.27-7.37,4.1-.02,7.44,3.27,7.45,7.34,0,4.01-3.26,7.33-7.27,7.37-4.07,.04-7.42-3.26-7.45-7.35Zm-4.45,24.49c.15-4.64,5.51-9.43,10.9-9.75,6.25-.37,11.85,3.86,12.82,9.75h-23.72Zm28.97,1.91c-.15-3.85-1.45-7.27-3.88-10.27-1.96-2.41-4.43-4.11-7.34-5.27,7.26-6.19,8.38-13.65,3-19.34-4.89-5.17-13-5.16-17.89,.02-5.37,5.68-4.23,13.15,2.99,19.29-6.87,3.02-10.7,8.11-11.19,15.56-.14,2.08,.83,3.05,2.89,3.05,9.51,.01,19.02,.01,28.53,0,2.05,0,2.98-.97,2.9-3.05Zm-24.52-26.4c-.02-3.99,3.28-7.35,7.27-7.37,4.1-.02,7.44,3.27,7.45,7.34,0,4.01-3.26,7.33-7.27,7.37-4.07,.04-7.42-3.26-7.45-7.35Zm-4.45,24.49c.15-4.64,5.51-9.43,10.9-9.75,6.25-.37,11.85,3.86,12.82,9.75h-23.72Zm28.97,1.91c-.15-3.85-1.45-7.27-3.88-10.27-1.96-2.41-4.43-4.11-7.34-5.27,7.26-6.19,8.38-13.65,3-19.34-4.89-5.17-13-5.16-17.89,.02-5.37,5.68-4.23,13.15,2.99,19.29-6.87,3.02-10.7,8.11-11.19,15.56-.14,2.08,.83,3.05,2.89,3.05,9.51,.01,19.02,.01,28.53,0,2.05,0,2.98-.97,2.9-3.05Zm-24.52-26.4c-.02-3.99,3.28-7.35,7.27-7.37,4.1-.02,7.44,3.27,7.45,7.34,0,4.01-3.26,7.33-7.27,7.37-4.07,.04-7.42-3.26-7.45-7.35Zm-4.45,24.49c.15-4.64,5.51-9.43,10.9-9.75,6.25-.37,11.85,3.86,12.82,9.75h-23.72Zm28.97,1.91c-.15-3.85-1.45-7.27-3.88-10.27-1.96-2.41-4.43-4.11-7.34-5.27,7.26-6.19,8.38-13.65,3-19.34-4.89-5.17-13-5.16-17.89,.02-5.37,5.68-4.23,13.15,2.99,19.29-6.87,3.02-10.7,8.11-11.19,15.56-.14,2.08,.83,3.05,2.89,3.05,9.51,.01,19.02,.01,28.53,0,2.05,0,2.98-.97,2.9-3.05Zm-24.52-26.4c-.02-3.99,3.28-7.35,7.27-7.37,4.1-.02,7.44,3.27,7.45,7.34,0,4.01-3.26,7.33-7.27,7.37-4.07,.04-7.42-3.26-7.45-7.35Zm-4.45,24.49c.15-4.64,5.51-9.43,10.9-9.75,6.25-.37,11.85,3.86,12.82,9.75h-23.72Zm28.97,1.91c-.15-3.85-1.45-7.27-3.88-10.27-1.96-2.41-4.43-4.11-7.34-5.27,7.26-6.19,8.38-13.65,3-19.34-4.89-5.17-13-5.16-17.89,.02-5.37,5.68-4.23,13.15,2.99,19.29-6.87,3.02-10.7,8.11-11.19,15.56-.14,2.08,.83,3.05,2.89,3.05,9.51,.01,19.02,.01,28.53,0,2.05,0,2.98-.97,2.9-3.05Zm-24.52-26.4c-.02-3.99,3.28-7.35,7.27-7.37,4.1-.02,7.44,3.27,7.45,7.34,0,4.01-3.26,7.33-7.27,7.37-4.07,.04-7.42-3.26-7.45-7.35Zm-4.45,24.49c.15-4.64,5.51-9.43,10.9-9.75,6.25-.37,11.85,3.86,12.82,9.75h-23.72Zm28.97,1.91c-.15-3.85-1.45-7.27-3.88-10.27-1.96-2.41-4.43-4.11-7.34-5.27,7.26-6.19,8.38-13.65,3-19.34-4.89-5.17-13-5.16-17.89,.02-5.37,5.68-4.23,13.15,2.99,19.29-6.87,3.02-10.7,8.11-11.19,15.56-.14,2.08,.83,3.05,2.89,3.05,9.51,.01,19.02,.01,28.53,0,2.05,0,2.98-.97,2.9-3.05Zm-24.52-26.4c-.02-3.99,3.28-7.35,7.27-7.37,4.1-.02,7.44,3.27,7.45,7.34,0,4.01-3.26,7.33-7.27,7.37-4.07,.04-7.42-3.26-7.45-7.35Zm-4.45,24.49c.15-4.64,5.51-9.43,10.9-9.75,6.25-.37,11.85,3.86,12.82,9.75h-23.72Zm28.97,1.91c-.15-3.85-1.45-7.27-3.88-10.27-1.96-2.41-4.43-4.11-7.34-5.27,7.26-6.19,8.38-13.65,3-19.34-4.89-5.17-13-5.16-17.89,.02-5.37,5.68-4.23,13.15,2.99,19.29-6.87,3.02-10.7,8.11-11.19,15.56-.14,2.08,.83,3.05,2.89,3.05,9.51,.01,19.02,.01,28.53,0,2.05,0,2.98-.97,2.9-3.05Zm-24.52-26.4c-.02-3.99,3.28-7.35,7.27-7.37,4.1-.02,7.44,3.27,7.45,7.34,0,4.01-3.26,7.33-7.27,7.37-4.07,.04-7.42-3.26-7.45-7.35Zm-4.45,24.49c.15-4.64,5.51-9.43,10.9-9.75,6.25-.37,11.85,3.86,12.82,9.75h-23.72Z"/></svg>