<?xml version="1.0" encoding="UTF-8"?><svg id="a" xmlns="http://www.w3.org/2000/svg" xmlns:xlink="http://www.w3.org/1999/xlink" viewBox="0 0 288 288"><defs><style>.c{fill:#fff;}.d{fill:url(#b);}</style><linearGradient id="b" x1="75.62" y1="262.44" x2="212.38" y2="25.56" gradientTransform="matrix(1, 0, 0, 1, 0, 0)" gradientUnits="userSpaceOnUse"><stop offset="0" stop-color="#e06363"/><stop offset="1" stop-color="#fcae16"/></linearGradient></defs><circle class="d" cx="144" cy="144" r="136.74"/><g><path class="c" d="M215.24,222.21c0,1.22-.37,1.4-1.47,1.39-27.04-.03-54.09-.03-81.14,0-1.2,0-1.45-.34-1.4-1.46,.1-2.17-.05-4.35,.06-6.53,.07-1.22-.35-1.4-1.46-1.4-17.62,.03-35.23,0-52.85,.06-1.46,0-1.72-.41-1.72-1.77,.03-49.38,.03-98.76,.03-148.13,.53,.6,.49,1.34,.49,2.06,0,1.97,0,3.94,0,5.9V210.69c0,3.06,0,3.06,3.07,3.06h49.43c3.33,0,3.46,.14,3.47,3.53,0,1.4,.02,2.79,0,4.2,0,1.08,.41,1.66,1.55,1.6,.42-.03,.83,0,1.25,0h77.25q2.9,0,2.9-2.9v-58.6q0-2.78-2.87-2.78c-5.64,0-11.29,0-16.94,0-.57,0-1.14,0-1.71-.03-1.02-.05-1.65-.53-1.79-1.58-.08-.51-.17-1.02-.26-1.53-1.16-6.92-5.07-11.67-11.52-14.29-1.58-.64-2.25-1.55-2.24-3.24,.02-23.89,0-47.78,.02-71.66,0-.72-.03-1.46,.49-2.06,0,24.76,0,49.53-.03,74.3,0,1.18,.35,1.59,1.46,2.01,7.52,2.86,11.72,8.38,12.49,16.4,.1,1.07,.43,1.2,1.36,1.2,6.84-.03,13.68,0,20.52-.04,1.13,0,1.55,.16,1.55,1.46-.05,20.83-.05,41.66,0,62.49Z"/><path class="c" d="M215.24,159.73c0-1.3-.42-1.47-1.55-1.46-6.84,.05-13.68,0-20.52,.04-.93,0-1.26-.14-1.36-1.2-.77-8.02-4.97-13.54-12.49-16.4-1.11-.42-1.46-.83-1.46-2.01,.03-24.77,.03-49.54,.03-74.3H75.29c0,49.37,0,98.75-.03,148.13,0,1.36,.27,1.78,1.72,1.77,17.61-.06,35.23-.03,52.85-.06,1.11,0,1.53,.17,1.46,1.4-.11,2.18,.03,4.36-.06,6.53-.04,1.12,.2,1.46,1.4,1.46,27.05-.03,54.1-.03,81.14,0,1.1,0,1.47-.16,1.47-1.39-.05-20.83-.05-41.66,0-62.49Zm-74.66,29.51c1.32,.57,2.51,1.14,3.74,1.61,6.8,2.67,13.93,3.85,21.18,4.44,.51,.04,1.03,.09,1.55,.07,1.11-.03,1.62,.3,1.54,1.59-.13,2.27,0,4.56-.05,6.84-.02,.81,.09,1.2,1.06,1.16,2.44-.07,4.87-.06,7.31,0,.87,.03,1.01-.3,1-1.07-.04-2.28,.08-4.56-.05-6.83-.07-1.3,.36-1.65,1.6-1.71,6.74-.33,13.37-1.37,19.81-3.45,2.19-.71,4.33-1.59,6.61-2.72v3.58c0,6.68-.03,13.37,.02,20.05,0,1.07-.1,1.49-1.37,1.49-20.89-.05-41.77-.03-62.65-.04-.6,0-1.33,.3-1.32-.88,.04-7.98,.03-15.96,.03-24.13Zm65.32-19.96c-.11,2.17-.14,4.35,0,6.52,.12,1.87-.75,3.03-2.18,3.96-2.9,1.9-6.13,2.97-9.44,3.81-15.25,3.86-30.42,3.67-45.47-1.02-2.22-.68-4.36-1.59-6.29-2.93-1.31-.92-2.08-2.02-1.98-3.76,.14-2.26,.1-4.55,0-6.83-.04-1.14,.23-1.45,1.42-1.45,10.46,.06,20.92,.03,31.38,.03s20.62,.03,30.92-.04c1.43,0,1.71,.41,1.64,1.71Zm-23.39-12.08c.11,.91-.15,1.13-1.03,1.11-2.8-.05-5.6-.02-8.39-.02s-5.5-.04-8.23,.03c-.91,.02-1.01-.33-.93-1.07,.47-4.57,4.53-8.24,9.2-8.28,4.74-.03,8.83,3.58,9.39,8.23ZM84.58,75.29c0-1.27,.26-1.6,1.58-1.6,26.94,.04,53.89,.04,80.83,0,1.25,0,1.61,.23,1.61,1.56-.05,21.19-.04,42.39,0,63.57,0,1.03-.22,1.47-1.29,1.81-7.06,2.24-12.21,8.93-12.66,16.43-.06,1.03-.35,1.25-1.32,1.24-6.89-.03-13.78,.02-20.67-.05-1.19,0-1.42,.31-1.42,1.45,.04,14.56,0,29.12,.06,43.68,0,1.31-.32,1.59-1.59,1.58-14.51-.05-29.02-.05-43.52,0-1.31,0-1.59-.31-1.59-1.59,.04-21.34,.03-42.69,.03-64.04s0-42.69-.03-64.04Zm28,25.93c-.03,.86,.2,1.15,1.1,1.13,1.97-.07,3.94-.03,5.9-.03,12.75,0,25.49-.02,38.24,.03,1.13,0,1.51-.22,1.45-1.41-.11-2.17-.1-4.35,0-6.53,.05-1.14-.23-1.46-1.41-1.45-7.31,.07-14.61,.03-21.92,.03s-14.72,.02-22.07-.03c-.99,0-1.33,.21-1.29,1.26,.09,2.33,.07,4.66,0,6.99Zm46.68,30.09c.03-.83-.23-1.03-1.03-1.02-14.87,.02-29.75,.02-44.61,0-.82,0-1.05,.23-1.03,1.04,.05,2.33,.09,4.66,0,6.99-.04,1.11,.28,1.36,1.36,1.35,7.3-.05,14.61-.03,21.91-.03s14.72-.03,22.08,.03c1.09,0,1.39-.27,1.34-1.35-.09-2.33-.06-4.66,0-6.99Zm-45.25-10.31c7.25-.06,14.51-.03,21.76-.03s14.82-.02,22.23,.03c1.01,0,1.31-.24,1.27-1.27-.08-2.33-.07-4.66,0-6.99,.03-.88-.23-1.13-1.11-1.11-3.31,.05-6.63,.02-9.95,.02-11.4,0-22.8,.02-34.19-.03-1.15,0-1.49,.25-1.43,1.43,.1,2.17,.1,4.35,0,6.53-.06,1.16,.27,1.44,1.43,1.43Zm-19.83-18.98c.85,.94,2.83,.24,4.31,.28,1.54,.04,3.63,.56,4.49-.23,.97-.89,.26-3.02,.29-4.6,.03-1.44,.51-3.38-.23-4.19-.84-.94-2.82-.17-4.3-.21-1.54,0-3.64-.62-4.49,.16-.97,.89-.26,3.02-.29,4.6-.03,1.44-.51,3.38,.22,4.19Zm.09,18.73c.85,.75,2.85,.25,4.35,.21,1.53-.04,3.58,.68,4.44-.3,.75-.84,.25-2.85,.21-4.34-.04-1.53,.68-3.58-.29-4.45-.85-.75-2.85-.25-4.35-.21-1.53,.04-3.58-.68-4.44,.29-.75,.84-.16,2.86-.16,4.35,.09,1.53-.75,3.58,.24,4.45Zm8.7,9.77c-.85-.74-2.86-.16-4.35-.16-1.53,.09-3.58-.75-4.45,.24-.75,.86-.24,2.86-.2,4.35,.04,1.53-.68,3.58,.29,4.45,.85,.75,2.86,.25,4.35,.21,1.53-.04,3.58,.68,4.45-.29,.75-.85,.24-2.86,.2-4.35-.04-1.53,.68-3.59-.29-4.45Z"/><path class="c" d="M103.25,134.97c.04,1.49,.55,3.5-.2,4.35-.87,.97-2.91,.25-4.45,.29-1.49,.04-3.5,.55-4.35-.21-.98-.87-.25-2.91-.29-4.45-.04-1.49-.55-3.49,.2-4.35,.87-.99,2.92-.16,4.45-.24,1.49,0,3.5-.58,4.35,.16,.98,.86,.25,2.91,.29,4.45Z"/><path class="c" d="M94.01,116.31c0-1.49-.59-3.51,.16-4.35,.86-.97,2.91-.25,4.44-.29,1.5-.04,3.5-.55,4.35,.21,.97,.87,.25,2.91,.29,4.45,.04,1.49,.55,3.5-.21,4.34-.86,.98-2.91,.26-4.44,.3-1.5,.04-3.5,.54-4.35-.21-1-.87-.16-2.92-.24-4.45Z"/><path class="c" d="M103.26,97.48c-.03,1.59,.68,3.71-.29,4.6-.86,.79-2.95,.27-4.49,.23-1.48-.03-3.46,.66-4.31-.28-.73-.81-.24-2.75-.22-4.19,.03-1.59-.68-3.71,.29-4.6,.85-.77,2.95-.16,4.49-.16,1.48,.03,3.46-.73,4.3,.21,.74,.81,.25,2.75,.23,4.19Z"/><path class="c" d="M159.26,119.73c.03,1.02-.27,1.27-1.27,1.27-7.41-.04-14.82-.03-22.23-.03s-14.5-.03-21.76,.03c-1.16,0-1.49-.27-1.43-1.43,.1-2.18,.1-4.36,0-6.53-.06-1.18,.28-1.44,1.43-1.43,11.4,.04,22.8,.03,34.19,.03,3.32,0,6.64,.03,9.95-.02,.88-.02,1.14,.23,1.11,1.11-.06,2.33-.07,4.66,0,6.99Z"/><path class="c" d="M159.26,138.31c.04,1.08-.25,1.36-1.34,1.35-7.36-.05-14.72-.03-22.08-.03s-14.61-.03-21.91,.03c-1.08,0-1.4-.24-1.36-1.35,.1-2.32,.06-4.65,0-6.99-.02-.81,.21-1.04,1.03-1.04,14.87,.03,29.74,.03,44.61,0,.8,0,1.06,.19,1.03,1.02-.05,2.33-.08,4.66,0,6.99Z"/><path class="c" d="M112.57,94.22c-.03-1.05,.3-1.26,1.29-1.26,7.35,.04,14.71,.03,22.07,.03s14.61,.03,21.92-.03c1.19,0,1.46,.3,1.41,1.45-.1,2.18-.1,4.36,0,6.53,.06,1.2-.32,1.42-1.45,1.41-12.75-.04-25.49-.03-38.24-.03-1.97,0-3.94-.04-5.9,.03-.9,.03-1.13-.27-1.1-1.13,.06-2.33,.08-4.66,0-6.99Z"/><path class="c" d="M157.82,102.35c-12.75-.04-25.49-.03-38.24-.03-1.97,0-3.94-.04-5.9,.03-.9,.03-1.13-.27-1.1-1.13,.06-2.33,.08-4.66,0-6.99-.03-1.05,.3-1.26,1.29-1.26,7.35,.04,14.71,.03,22.07,.03s14.61,.03,21.92-.03c1.19,0,1.46,.3,1.41,1.45-.1,2.18-.1,4.36,0,6.53,.06,1.2-.32,1.42-1.45,1.41Z"/><path class="c" d="M159.26,119.73c.03,1.02-.27,1.27-1.27,1.27-7.41-.04-14.82-.03-22.23-.03s-14.5-.03-21.76,.03c-1.16,0-1.49-.27-1.43-1.43,.1-2.18,.1-4.36,0-6.53-.06-1.18,.28-1.44,1.43-1.43,11.4,.04,22.8,.03,34.19,.03,3.32,0,6.64,.03,9.95-.02,.88-.02,1.14,.23,1.11,1.11-.06,2.33-.07,4.66,0,6.99Z"/><path class="c" d="M159.26,138.31c.04,1.08-.25,1.36-1.34,1.35-7.36-.05-14.72-.03-22.08-.03s-14.61-.03-21.91,.03c-1.08,0-1.4-.24-1.36-1.35,.1-2.32,.06-4.65,0-6.99-.02-.81,.21-1.04,1.03-1.04,14.87,.03,29.74,.03,44.61,0,.8,0,1.06,.19,1.03,1.02-.05,2.33-.08,4.66,0,6.99Z"/><path class="c" d="M102.96,102.08c-.86,.79-2.95,.27-4.49,.23-1.48-.03-3.46,.66-4.31-.28-.73-.81-.24-2.75-.22-4.19,.03-1.59-.68-3.71,.29-4.6,.85-.77,2.95-.16,4.49-.16,1.48,.03,3.46-.73,4.3,.21,.74,.81,.25,2.75,.23,4.19-.03,1.59,.68,3.71-.29,4.6Z"/><path class="c" d="M103.25,116.32c.04,1.49,.55,3.5-.21,4.34-.86,.98-2.91,.26-4.44,.3-1.5,.04-3.5,.54-4.35-.21-1-.87-.16-2.92-.24-4.45,0-1.49-.59-3.51,.16-4.35,.86-.97,2.91-.25,4.44-.29,1.5-.04,3.5-.55,4.35,.21,.97,.87,.25,2.91,.29,4.45Z"/><path class="c" d="M103.25,134.97c.04,1.49,.55,3.5-.2,4.35-.87,.97-2.91,.25-4.45,.29-1.49,.04-3.5,.55-4.35-.21-.98-.87-.25-2.91-.29-4.45-.04-1.49-.55-3.49,.2-4.35,.87-.99,2.92-.16,4.45-.24,1.49,0,3.5-.58,4.35,.16,.98,.86,.25,2.91,.29,4.45Z"/></g></svg>