<?xml version="1.0" encoding="UTF-8"?><svg id="a" xmlns="http://www.w3.org/2000/svg" xmlns:xlink="http://www.w3.org/1999/xlink" viewBox="0 0 288 288"><defs><style>.c{fill:#fff;}.d{fill:url(#b);}</style><linearGradient id="b" x1="75.62" y1="262.44" x2="212.38" y2="25.56" gradientTransform="matrix(1, 0, 0, 1, 0, 0)" gradientUnits="userSpaceOnUse"><stop offset="0" stop-color="#e06363"/><stop offset="1" stop-color="#fcae16"/></linearGradient></defs><circle class="d" cx="144" cy="144" r="136.74"/><path class="c" d="M104.13,140.48c-2.25-.04-4.5-.04-6.74,0-2.04,.04-3.44,1.4-3.51,3.3-.07,1.97,1.3,3.48,3.38,3.61,1.14,.07,2.3,.01,3.45,.01,1.16,.01,2.31,.05,3.46,0,2.11-.1,3.53-1.54,3.52-3.49-.01-1.96-1.45-3.39-3.56-3.43Zm.33,16.71c-2.47-.09-4.96-.1-7.43,.01-1.87,.08-3.17,1.64-3.15,3.46,.02,1.84,1.33,3.28,3.21,3.41,1.21,.08,2.42,.01,3.63,.01,1.21,.01,2.43,.06,3.63-.01,1.98-.1,3.36-1.58,3.34-3.47-.02-1.82-1.34-3.33-3.23-3.41Zm49.57-16.72c-4.85-.01-9.7,0-14.55,0-6.41,0-12.83-.01-19.24,.01-2.57,.01-4.1,1.71-3.74,4.05,.29,1.81,1.7,2.87,3.92,2.88,5.61,.01,11.21,0,16.81,0s11.21,.01,16.81,0c2.46-.01,4.05-1.47,4-3.57-.06-2.04-1.6-3.36-4.01-3.37Zm37.73,16.9c-.73-.28-1.48-.21-2.22-.21-22.85-.01-45.7,0-68.54,0-.52,0-1.05-.04-1.56,.03-1.91,.28-3.16,1.9-2.97,3.82,.2,1.97,1.64,3.08,4.08,3.08,11.51,.01,23.02,.01,34.53,.01h34.36c.58,0,1.17,.03,1.73-.05,1.57-.23,2.73-1.48,2.88-3.03,.17-1.7-.7-3.05-2.29-3.65Zm0,0c-.73-.28-1.48-.21-2.22-.21-22.85-.01-45.7,0-68.54,0-.52,0-1.05-.04-1.56,.03-1.91,.28-3.16,1.9-2.97,3.82,.2,1.97,1.64,3.08,4.08,3.08,11.51,.01,23.02,.01,34.53,.01h34.36c.58,0,1.17,.03,1.73-.05,1.57-.23,2.73-1.48,2.88-3.03,.17-1.7-.7-3.05-2.29-3.65Zm-71.34-9.96c5.61,.01,11.21,0,16.81,0s11.21,.01,16.81,0c2.46-.01,4.05-1.47,4-3.57-.06-2.04-1.6-3.36-4.01-3.37-4.85-.01-9.7,0-14.55,0-6.41,0-12.83-.01-19.24,.01-2.57,.01-4.1,1.71-3.74,4.05,.29,1.81,1.7,2.87,3.92,2.88Zm-15.96,9.78c-2.47-.09-4.96-.1-7.43,.01-1.87,.08-3.17,1.64-3.15,3.46,.02,1.84,1.33,3.28,3.21,3.41,1.21,.08,2.42,.01,3.63,.01,1.21,.01,2.43,.06,3.63-.01,1.98-.1,3.36-1.58,3.34-3.47-.02-1.82-1.34-3.33-3.23-3.41Zm-.33-16.71c-2.25-.04-4.5-.04-6.74,0-2.04,.04-3.44,1.4-3.51,3.3-.07,1.97,1.3,3.48,3.38,3.61,1.14,.07,2.3,.01,3.45,.01,1.16,.01,2.31,.05,3.46,0,2.11-.1,3.53-1.54,3.52-3.49-.01-1.96-1.45-3.39-3.56-3.43Zm116.54-53.45c.07-7.47-5.38-12.83-12.69-12.65-10.58,.26-21.17,.05-31.76,.08-1.24,.01-2.35-.23-3.47-.79-8.49-4.29-17.02-8.49-25.51-12.8-2.26-1.15-4.3-1.12-6.57,.04-8.48,4.32-17.02,8.53-25.53,12.81-1,.5-2,.75-3.14,.74-10.76-.03-21.52-.02-32.28-.01-7.57,.01-12.37,4.77-12.38,12.32,0,32.1,0,64.2,0,96.31,0,1.34,.11,2.66,.48,3.94,1.49,5.23,5.86,8.36,11.75,8.36,14.46,.02,28.92,.03,43.38-.02,1.34-.01,1.75,.3,1.74,1.69-.08,7.52-.06,15.04-.01,22.56,0,1.1-.22,1.49-1.4,1.46-3.41-.09-6.83-.04-10.24-.03-2.64,.01-4.2,1.36-4.15,3.57,.04,2.15,1.52,3.37,4.15,3.37h61.96c2.58-.01,4.07-1.29,4.07-3.45s-1.52-3.48-4.06-3.49c-3.41-.02-6.83-.06-10.24,.03-1.24,.03-1.5-.35-1.49-1.54,.05-7.46,.07-14.92,0-22.38-.01-1.45,.38-1.8,1.82-1.8,14.29,.06,28.57,.04,42.86,.03,1.15,0,2.33,0,3.45-.23,5.67-1.21,9.21-5.82,9.21-11.98,.02-16.14,.01-32.28,.01-48.42s-.11-31.81,.05-47.72Zm-116.63-.02c12.88-6.45,25.76-12.89,38.65-19.34,.72-.36,1.34-.65,2.24-.19,13.34,6.71,26.7,13.37,40.4,20.21-4.91,2.45-9.48,4.74-14.06,7.03-8.66,4.33-17.32,8.66-25.97,13.02-.82,.41-1.49,.57-2.41,.11-13.04-6.56-26.1-13.08-39.15-19.62-.25-.12-.49-.27-.78-.43,.22-.54,.71-.6,1.08-.79Zm11.49,14.89c4.2,2.1,8.25,4.12,12.3,6.14,4.38,2.19,8.78,4.34,13.13,6.59,2.09,1.08,4.02,1.03,6.1-.03,7.81-3.95,15.66-7.84,23.49-11.75,.55-.27,1.12-.54,1.88-.9,0,6.38-.02,12.51,.02,18.64,.01,1.27-.54,1.91-1.75,2.15-12.31,2.42-24.72,3.27-37.24,2.25-5.36-.44-10.67-1.22-15.95-2.21-1.22-.23-2.01-.68-2-2.11,.04-6.17,.02-12.35,.02-18.77Zm-41.24-15.09c0-3.71,1.71-5.41,5.4-5.42,6.42-.01,12.83,0,19.25,0,.04,.1,.08,.2,.11,.31-.79,.41-1.6,.79-2.37,1.24-1.86,1.07-2.83,2.68-2.8,4.84,.03,2.17,1.06,3.77,2.95,4.75,3.38,1.74,6.78,3.47,10.22,5.08,1.15,.54,1.58,1.16,1.57,2.46-.07,6.83-.04,13.66-.03,20.48,0,4.86,2.48,7.95,7.25,8.93,17.47,3.59,34.99,3.84,52.56,.71,1.36-.24,2.73-.49,4.08-.78,4.18-.89,6.86-4.1,6.88-8.36,.04-6.59,.01-13.19,.01-19.78q0-3.14,3.23-4.28c.34,.44,.17,.96,.17,1.44,0,6.77-.01,13.54,.02,20.31,.01,2.25,1.25,3.66,3.2,3.76,2.19,.13,3.69-1.35,3.72-3.83,.04-4.22,0-8.44,0-12.67,0-3.81,.02-7.63,0-11.45-.01-.81,.09-1.39,.95-1.78,2.26-1.03,3.52-2.78,3.41-5.33-.1-2.48-1.52-4.02-3.71-4.97-.5-.22-.97-.52-1.85-1,.92-.04,1.4-.08,1.89-.08,6.01,0,12.03-.02,18.05,0,3.46,.01,5.22,1.76,5.22,5.24,.01,28,0,56,.03,84,0,1.2-.28,1.55-1.51,1.55-45.48-.03-90.95-.03-136.42,0-1.23,0-1.52-.35-1.51-1.55,.03-27.94,.02-55.88,.03-83.82Zm82.1,132.92c0,1.1-.33,1.34-1.37,1.33-7.4-.04-14.8-.04-22.2,0-1,0-1.26-.31-1.24-1.28,.04-3.87,.02-7.74,.02-11.61s.03-7.63-.03-11.45c-.01-1.07,.31-1.36,1.37-1.36,7.34,.05,14.68,.06,22.02,0,1.19-.01,1.43,.39,1.43,1.48-.05,7.63-.05,15.26,0,22.89Zm57.31-38.67c-.15,1.26,.11,2.54-.19,3.8-.49,2.08-2.02,3.4-4.14,3.55-.64,.05-1.27,.03-1.91,.03-42.33,.01-84.66,.01-126.99,.01-4.75,0-6.19-1.45-6.19-6.21q0-3.14,3.19-3.14h66.61c22.56,0,45.11,.02,67.66-.04,1.62,0,2.15,.43,1.96,2Zm-94.26-23.87c-1.91,.28-3.16,1.9-2.97,3.82,.2,1.97,1.64,3.08,4.08,3.08,11.51,.01,23.02,.01,34.53,.01h34.36c.58,0,1.17,.03,1.73-.05,1.57-.23,2.73-1.48,2.88-3.03,.17-1.7-.7-3.05-2.29-3.65-.73-.28-1.48-.21-2.22-.21-22.85-.01-45.7,0-68.54,0-.52,0-1.05-.04-1.56,.03Zm.98-9.78c5.61,.01,11.21,0,16.81,0s11.21,.01,16.81,0c2.46-.01,4.05-1.47,4-3.57-.06-2.04-1.6-3.36-4.01-3.37-4.85-.01-9.7,0-14.55,0-6.41,0-12.83-.01-19.24,.01-2.57,.01-4.1,1.71-3.74,4.05,.29,1.81,1.7,2.87,3.92,2.88Zm-23.33,16.66c1.21,.08,2.42,.01,3.63,.01,1.21,.01,2.43,.06,3.63-.01,1.98-.1,3.36-1.58,3.34-3.47-.02-1.82-1.34-3.33-3.23-3.41-2.47-.09-4.96-.1-7.43,.01-1.87,.08-3.17,1.64-3.15,3.46,.02,1.84,1.33,3.28,3.21,3.41Zm.17-16.68c1.14,.07,2.3,.01,3.45,.01,1.16,.01,2.31,.05,3.46,0,2.11-.1,3.53-1.54,3.52-3.49-.01-1.96-1.45-3.39-3.56-3.43-2.25-.04-4.5-.04-6.74,0-2.04,.04-3.44,1.4-3.51,3.3-.07,1.97,1.3,3.48,3.38,3.61Zm6.87-6.91c-2.25-.04-4.5-.04-6.74,0-2.04,.04-3.44,1.4-3.51,3.3-.07,1.97,1.3,3.48,3.38,3.61,1.14,.07,2.3,.01,3.45,.01,1.16,.01,2.31,.05,3.46,0,2.11-.1,3.53-1.54,3.52-3.49-.01-1.96-1.45-3.39-3.56-3.43Zm.33,16.71c-2.47-.09-4.96-.1-7.43,.01-1.87,.08-3.17,1.64-3.15,3.46,.02,1.84,1.33,3.28,3.21,3.41,1.21,.08,2.42,.01,3.63,.01,1.21,.01,2.43,.06,3.63-.01,1.98-.1,3.36-1.58,3.34-3.47-.02-1.82-1.34-3.33-3.23-3.41Zm49.57-16.72c-4.85-.01-9.7,0-14.55,0-6.41,0-12.83-.01-19.24,.01-2.57,.01-4.1,1.71-3.74,4.05,.29,1.81,1.7,2.87,3.92,2.88,5.61,.01,11.21,0,16.81,0s11.21,.01,16.81,0c2.46-.01,4.05-1.47,4-3.57-.06-2.04-1.6-3.36-4.01-3.37Zm37.73,16.9c-.73-.28-1.48-.21-2.22-.21-22.85-.01-45.7,0-68.54,0-.52,0-1.05-.04-1.56,.03-1.91,.28-3.16,1.9-2.97,3.82,.2,1.97,1.64,3.08,4.08,3.08,11.51,.01,23.02,.01,34.53,.01h34.36c.58,0,1.17,.03,1.73-.05,1.57-.23,2.73-1.48,2.88-3.03,.17-1.7-.7-3.05-2.29-3.65Zm0,0c-.73-.28-1.48-.21-2.22-.21-22.85-.01-45.7,0-68.54,0-.52,0-1.05-.04-1.56,.03-1.91,.28-3.16,1.9-2.97,3.82,.2,1.97,1.64,3.08,4.08,3.08,11.51,.01,23.02,.01,34.53,.01h34.36c.58,0,1.17,.03,1.73-.05,1.57-.23,2.73-1.48,2.88-3.03,.17-1.7-.7-3.05-2.29-3.65Zm-37.73-16.9c-4.85-.01-9.7,0-14.55,0-6.41,0-12.83-.01-19.24,.01-2.57,.01-4.1,1.71-3.74,4.05,.29,1.81,1.7,2.87,3.92,2.88,5.61,.01,11.21,0,16.81,0s11.21,.01,16.81,0c2.46-.01,4.05-1.47,4-3.57-.06-2.04-1.6-3.36-4.01-3.37Zm-49.57,16.72c-2.47-.09-4.96-.1-7.43,.01-1.87,.08-3.17,1.64-3.15,3.46,.02,1.84,1.33,3.28,3.21,3.41,1.21,.08,2.42,.01,3.63,.01,1.21,.01,2.43,.06,3.63-.01,1.98-.1,3.36-1.58,3.34-3.47-.02-1.82-1.34-3.33-3.23-3.41Zm-.33-16.71c-2.25-.04-4.5-.04-6.74,0-2.04,.04-3.44,1.4-3.51,3.3-.07,1.97,1.3,3.48,3.38,3.61,1.14,.07,2.3,.01,3.45,.01,1.16,.01,2.31,.05,3.46,0,2.11-.1,3.53-1.54,3.52-3.49-.01-1.96-1.45-3.39-3.56-3.43Z"/></svg>