<?xml version="1.0" encoding="UTF-8"?><svg id="a" xmlns="http://www.w3.org/2000/svg" xmlns:xlink="http://www.w3.org/1999/xlink" viewBox="0 0 288 288"><defs><style>.c{fill:#fff;}.d{fill:url(#b);}</style><linearGradient id="b" x1="75.58" y1="262.44" x2="212.35" y2="25.56" gradientTransform="matrix(1, 0, 0, 1, 0, 0)" gradientUnits="userSpaceOnUse"><stop offset="0" stop-color="#e06363"/><stop offset="1" stop-color="#fcae16"/></linearGradient></defs><circle class="d" cx="143.97" cy="144" r="136.74"/><g><path class="c" d="M189.3,235.1H98.71c-1.3-.93-1.88-2.15-1.75-3.78,.1-1.3,0-2.61,.03-3.92,.06-1.92,1.13-3.06,2.77-3.02,1.56,.04,2.51,1.15,2.57,2.99q.08,2.37,2.48,2.37c26.24,0,52.49-.02,78.73,.04,1.61,0,2.32-.21,2.17-2.05-.18-2.15,.85-3.31,2.52-3.35,1.75-.05,2.75,1.16,2.78,3.37,.02,1.19-.08,2.38,.02,3.56,.14,1.62-.45,2.85-1.74,3.78Z"/><path class="c" d="M190.96,214.39c-.59-11.79-8.53-21.94-19.91-25.3-4.54-1.34-9.13-2.57-13.72-3.74-1.03-.26-1.33-.65-1.28-1.66,.08-1.6,.09-3.21,0-4.81-.06-1.08,.32-1.67,1.21-2.3,5.57-3.9,8.98-9.2,10.01-15.96q.44-2.84,3.38-2.94c4.14-.14,7.58-2.97,8.28-6.79,.75-4.11-1.27-7.9-5.19-9.48-.98-.4-1.2-.87-1.17-1.82,.06-2.14,.04-4.28,0-6.42-.37-20.8-22-34.44-40.92-25.81-2.55,1.16-3.4,2.55-2.59,4.21,.78,1.6,2.26,1.8,4.76,.65,12.19-5.58,26.56,.17,31.71,12.58,2.06,4.97,1.65,10.13,1.7,15.28,0,.9-.67,.65-1.14,.66-2.44,.02-4.87,.05-7.31,0-2.95-.06-4.44-1.41-4.84-4.36-.22-1.62-1-2.68-2.68-2.81-1.42-.11-2.42,.95-2.7,2.72-.5,3.11-2,4.43-5.18,4.46-3.57,.03-7.13,0-10.7,0-3.8,0-7.61,0-11.41,0-.68,0-1.22,.07-1.24-.96-.17-6.88-.1-13.68,4.22-19.62,1.04-1.43,.59-3.03-.77-3.86-1.29-.78-2.72-.44-3.7,.98-1.35,1.96-2.39,4.08-3.28,6.29-2.06,5.12-1.84,10.48-1.78,15.82,.01,1.16-.19,1.85-1.38,2.45-3.25,1.62-4.85,5.13-4.29,8.82,.5,3.34,3.19,6.04,6.69,6.8,1.18,.26,2.37,.23,3.55,.18,.91-.04,1.16,.23,1.24,1.16,.49,6.18,2.69,11.83,7.66,15.5,3.55,2.62,4.15,5.56,3.76,9.33,0,.06,0,.12,0,.18,.18,.98-.33,1.3-1.22,1.52-2.99,.74-5.95,1.61-8.94,2.36-5.51,1.38-10.82,3.11-15.17,7.02-5.9,5.31-9.08,11.91-9.57,19.81-.1,1.71,1.01,2.99,2.54,3.08,1.44,.08,2.55-.98,2.77-2.65,.05-.41,.09-.83,.13-1.24,1.21-10.41,8.07-17.97,18.24-20.21,.88-.2,1.13,.05,1.32,.83,.39,1.61,.83,3.22,1.33,4.8,2.14,6.75,9.89,9.23,15.54,4.96,1.42-1.07,2.78-2.23,4.11-3.42,.7-.63,1.22-.69,1.95-.03,1.23,1.12,2.52,2.18,3.82,3.21,5.87,4.65,13.75,2.15,15.93-5.04,.44-1.47,.87-2.96,1.25-4.45,.18-.74,.37-1.14,1.29-.88,2.51,.72,5.01,1.45,7.26,2.82,6.9,4.21,10.49,10.42,11.13,18.43,.15,1.92,1.37,3.03,2.92,2.85,1.53-.18,2.48-1.46,2.39-3.21Zm-21.65-68.31c2.96,.15,4.41,1.07,4.39,3.18-.02,1.93-1.37,3.05-3.74,3.08-.18,0-.36,0-.72,0-1.45,.37-1.94-.38-1.69-1.9,.06-.4-.09-.85,.03-1.23,.35-1.15-1.19-3.28,1.74-3.13Zm-52.66,6.14c-1.54-.43-2.42-1.47-2.34-3.12,.07-1.63,.99-2.6,2.59-2.89,3.3-.61,3.54-.39,3.54,3.16,0,3.06-.81,3.7-3.79,2.85Zm9.17,5.5c-.07-3.44,.02-6.89-.05-10.34-.02-1.04,.32-1.3,1.31-1.28,2.91,.06,5.82,.02,8.73,.02,2.44,0,4.87-.04,7.31,0,2.78,.06,5.28-.6,7.4-2.47,.33-.3,.6-.75,1.15-.21,2.5,2.45,5.63,2.89,8.92,2.65,1.37-.1,1.71,.35,1.64,1.67-.23,4.2,.36,8.44-.36,12.62-1.59,9.34-9.94,15.59-19.76,14.86-8.79-.66-16.11-8.51-16.3-17.53Zm11.71,40.63c-1.45,1.1-2.67,2.59-5.12,2.53-1.53-.14-3-.98-3.75-2.82-.25-.6-.41-1.24-.59-1.86-1.26-4.45-1.25-4.43,3.28-5.52,.76-.18,1.14-.13,1.44,.69,.88,2.41,2.45,4.32,4.6,5.72,.63,.41,.87,.7,.13,1.26Zm6.64-4.6c-3.52,.09-6.54-2.51-6.83-6.13-.19-2.3-.04-4.62-.08-6.93-.01-.74,.23-.91,.94-.73,3.86,1,7.73,1,11.59,0,.7-.18,.97-.02,.94,.72-.04,1.12,0,2.25,0,3.38h-.01c0,1.07,.06,2.14,0,3.2-.23,3.64-3.02,6.4-6.52,6.49Zm16.56-.58c-.4,1.55-.8,3.1-1.32,4.61-.67,1.99-2.31,3.12-4.3,3.11-2.19,0-3.47-1.62-4.96-2.84-.58-.48,.06-.68,.36-.88,2.19-1.46,3.77-3.4,4.73-5.85,.04-.11,.06-.29,.13-.32,1.78-.83,3.27,.52,4.92,.69,1.15,.12,.57,.95,.43,1.48Z"/><path class="c" d="M211.9,76.37c-1.5-.33-3.04-.54-4.57-.7-1.62-.17-2.78-.8-3.42-2.39-.5-1.26-1.18-2.46-1.79-3.68-1.43-2.86-3.77-4.46-6.94-4.47-3.16-.01-5.54,1.53-6.99,4.39-.67,1.32-1.4,2.62-1.96,3.98-.55,1.32-1.49,1.91-2.83,2.09-1.59,.21-3.18,.43-4.75,.7-3.03,.53-5.05,2.33-5.99,5.2-.97,2.97-.19,5.63,1.98,7.86,1.08,1.11,2.17,2.21,3.32,3.24,.94,.84,1.26,1.8,1.04,3.02-.34,1.93-.63,3.86-.87,5.33-.23,6.51,6.09,10.46,11.47,7.26,3.92-2.33,7.17-2.72,10.99-.02,2.7,1.91,5.79,1.6,8.5-.38,2.74-2,3.47-4.82,2.92-8.06-.23-1.35-.39-2.71-.71-4.03-.3-1.25,.05-2.18,.95-3.03,1.29-1.23,2.62-2.43,3.79-3.77,3.92-4.5,1.68-11.26-4.14-12.54Zm-.41,9.6c-1.09,1.01-2.15,2.04-3.2,3.1-1.97,1.98-2.85,4.31-2.32,7.12,.27,1.45,.52,2.92,.75,4.38,.18,1.14,.24,2.27-.91,3.02-1.04,.68-2.03,.36-3.01-.16-1.36-.73-2.72-1.44-4.09-2.14-2.38-1.22-4.78-1.23-7.16,0-1.53,.79-3.02,1.63-4.58,2.35-1.93,.9-3.57-.18-3.49-2.46,.2-1.16,.4-2.57,.69-3.97,.71-3.41-.02-6.34-2.71-8.69-.98-.86-1.87-1.82-2.81-2.72-.77-.74-1.27-1.55-.89-2.68,.41-1.2,1.34-1.56,2.46-1.71,1.53-.21,3.05-.46,4.57-.67,2.74-.39,4.69-1.87,5.94-4.3,.76-1.47,1.47-2.97,2.2-4.46,.45-.93,1.18-1.52,2.22-1.52,1.04,0,1.76,.59,2.21,1.53,.72,1.49,1.45,2.98,2.2,4.45,1.24,2.44,3.2,3.9,5.93,4.29,1.47,.21,2.93,.46,4.4,.65,1.11,.14,2.13,.4,2.57,1.58,.45,1.24-.07,2.17-.97,3Z"/><path class="c" d="M109.69,76.39c-1.56-.34-3.15-.55-4.74-.72-1.54-.17-2.65-.79-3.27-2.3-.56-1.36-1.26-2.68-1.95-3.99-1.45-2.77-3.81-4.24-6.9-4.24-3.1,0-5.42,1.54-6.87,4.3-.71,1.36-1.4,2.74-2.03,4.15-.54,1.21-1.41,1.84-2.7,2-1.47,.18-2.94,.37-4.41,.6-3.2,.52-5.49,2.24-6.45,5.37-.95,3.12-.08,5.84,2.26,8.1,.98,.95,1.94,1.92,2.95,2.84,1,.92,1.42,1.92,1.1,3.32-.43,1.91-.64,3.85-.86,5.22-.04,6.16,5.6,9.9,10.74,7.65,1.62-.71,3.2-1.55,4.73-2.43,1.11-.64,2.09-.59,3.17,.01,1.5,.84,3.01,1.66,4.58,2.36,5.45,2.43,11.26-1.65,10.78-7.6-.14-1.71-.47-3.41-.79-5.09-.27-1.41,.04-2.52,1.16-3.49,1.25-1.09,2.45-2.26,3.55-3.5,3.94-4.45,1.73-11.28-4.05-12.56Zm-.4,9.5c-.9,.87-1.75,1.78-2.69,2.6-2.76,2.38-3.52,5.35-2.76,8.83,.29,1.33,.47,2.69,.66,3.79,.11,2.3-1.51,3.45-3.41,2.58-1.56-.71-3.05-1.57-4.57-2.36-2.44-1.26-4.88-1.27-7.32,0-1.36,.71-2.73,1.42-4.09,2.14-1,.53-1.98,.79-3,.07-1.05-.74-1.01-1.8-.84-2.89,.24-1.52,.5-3.04,.77-4.56,.48-2.66-.32-4.92-2.15-6.84-1.15-1.2-2.35-2.35-3.56-3.49-.81-.76-1.15-1.63-.81-2.72,.36-1.13,1.28-1.47,2.33-1.62,1.58-.23,3.17-.46,4.75-.7,2.66-.4,4.58-1.83,5.8-4.2,.76-1.47,1.48-2.97,2.2-4.46,.45-.92,1.13-1.57,2.17-1.6,1.12-.03,1.87,.59,2.35,1.6,.71,1.49,1.42,2.99,2.2,4.46,1.24,2.34,3.15,3.8,5.81,4.19,1.52,.23,3.04,.47,4.57,.68,1.11,.15,2.07,.46,2.51,1.64,.46,1.22-.12,2.05-.92,2.83Z"/><path class="c" d="M161.36,64.27c-1.36-.37-2.79-.62-4.2-.7-2.37-.13-4.06-1-4.81-3.4-.3-.95-.84-1.82-1.3-2.72-1.47-2.88-3.78-4.56-7.07-4.54-3.29,.01-5.92,1.59-6.96,4.63-1.54,4.49-4.36,6.42-9.05,6.5-2.99,.05-5.21,1.93-6.28,4.8-1.33,3.54-.36,6.66,2.51,8.92,3.13,2.47,4.61,5.25,3.06,9.18-.1,.27-.08,.59-.13,.88-.63,3.16,.34,5.79,2.86,7.72,2.6,1.99,5.45,2.11,8.36,.62,1.21-.62,2.46-1.19,3.61-1.9,1.35-.83,2.59-.91,3.98-.06,1.36,.83,2.8,1.54,4.25,2.21,2.79,1.27,5.47,.94,7.87-.91,2.4-1.85,3.67-4.48,2.8-7.38-1.38-4.59-.51-8.08,3.49-10.92,1.8-1.27,2.52-3.39,2.48-6.73-.01-2.34-2.19-5.29-5.48-6.19Zm-.59,9c-1.16,1.27-2.45,2.42-3.68,3.63-2.06,2.04-2.76,4.5-2.25,7.33,.26,1.46,.48,2.93,.79,4.38,.24,1.1,0,2.02-.89,2.7-.92,.7-1.88,.53-2.84,0-1.41-.76-2.82-1.51-4.24-2.24-1.12-.57-2.29-.97-3.55-.9-1.38-.08-2.61,.3-3.79,.91-1.47,.76-2.95,1.53-4.41,2.31-.92,.5-1.83,.54-2.67-.1-.83-.63-1.11-1.49-.91-2.53,.28-1.45,.49-2.93,.78-4.38,.6-2.97-.16-5.52-2.34-7.63-1.11-1.07-2.2-2.17-3.32-3.23-.81-.76-1.19-1.65-.81-2.72,.35-.98,1.11-1.45,2.17-1.57,1.53-.18,3.05-.45,4.58-.67,2.86-.4,4.95-1.86,6.26-4.44,.75-1.48,1.42-3,2.22-4.45,1.1-2,3.2-1.99,4.3,.01,.8,1.45,1.46,2.98,2.22,4.45,1.35,2.63,3.49,4.1,6.44,4.44,1.53,.17,3.06,.42,4.57,.69,2.1,.38,2.82,2.42,1.38,3.99Z"/></g></svg>