<?xml version="1.0" encoding="UTF-8"?><svg id="a" xmlns="http://www.w3.org/2000/svg" xmlns:xlink="http://www.w3.org/1999/xlink" viewBox="0 0 288 288"><defs><style>.c{fill:#fff;}.d{fill:url(#b);}</style><linearGradient id="b" x1="75.62" y1="262.44" x2="212.38" y2="25.56" gradientTransform="matrix(1, 0, 0, 1, 0, 0)" gradientUnits="userSpaceOnUse"><stop offset="0" stop-color="#e06363"/><stop offset="1" stop-color="#fcae16"/></linearGradient></defs><circle class="d" cx="144" cy="144" r="136.74"/><g><path class="c" d="M144.2,44.88c-54.67-.19-99.28,44.31-99.32,99.08-.03,54.66,44.31,99.07,99.02,99.17,54.63,.09,99.07-44.25,99.21-98.98,.13-54.64-44.14-99.07-98.91-99.27Zm-.34,191.17c-50.77-.12-92.04-41.55-91.89-92.24,.14-50.77,41.64-92.07,92.27-91.85,50.83,.22,92.03,41.67,91.78,92.34-.24,50.73-41.57,91.86-92.16,91.74Z"/><path class="c" d="M144.09,59.04c-46.77-.07-84.93,37.99-85.04,84.82-.1,46.77,37.91,84.94,84.75,85.12,46.73,.16,84.97-37.87,85.15-84.71,.19-46.83-37.96-85.15-84.86-85.22Zm58.48,136.26c-.8,.93-1.37,1.19-2.17,.1-.31-.41-.71-.75-1.09-1.1-1.76-1.6-3.86-1.65-5.29-.13-1.37,1.45-1.27,3.44,.27,5.14q2.13,2.36-.33,4.4c-13.04,10.82-28.03,16.77-44.91,18.05-1.13,.09-1.64-.1-1.52-1.34,.09-.8,.08-1.63-.02-2.43-.24-1.91-1.8-3.29-3.63-3.16-1.95,.14-3.05,1.27-3.4,3.18-.23,1.25,.7,2.98-.5,3.64-.9,.51-2.43-.06-3.68-.19-16.53-1.7-31.04-8.05-43.61-18.92-1-.86-1.03-1.4-.04-2.18,.57-.46,1.11-1,1.53-1.59,1.11-1.58,1.12-3.17-.22-4.63-1.26-1.37-3.22-1.42-4.81-.27-.98,.71-1.63,2.51-2.76,2.18-1.08-.32-1.84-1.8-2.68-2.83-10.08-12.4-15.8-26.57-17.25-42.48-.04-.37-.02-.75-.13-1.1-.5-1.81,.27-2.32,1.98-2.12,1.09,.13,2.23,.13,3.2-.54,1.35-.92,1.98-2.23,1.56-3.82-.44-1.65-1.61-2.56-3.37-2.7-3.48-.27-3.53-.29-3.19-3.79,1.59-16.64,7.96-31.22,18.84-43.89,.87-1.01,1.34-1.18,2.36-.13,2.51,2.61,4.52,2.93,6.2,1.25,1.68-1.67,1.37-3.68-1.23-6.21-1.04-1.01-.9-1.48,.11-2.35,13.33-11.48,28.77-17.8,46.3-19.12,1.07-.08,1.5,.13,1.39,1.25-.07,.8-.06,1.63,.02,2.43,.2,1.92,1.7,3.28,3.53,3.27,1.84-.02,3.26-1.38,3.5-3.31,.16-1.22-.59-2.91,.42-3.51,.88-.53,2.42,.05,3.67,.17,16.54,1.66,31.05,8.02,43.65,18.85,1.09,.93,1.12,1.54,.02,2.34-.24,.16-.42,.41-.64,.62-1.91,1.96-2.11,4.05-.52,5.6,1.52,1.49,3.56,1.3,5.45-.5q1.98-1.9,3.79,.24c11.03,13.09,17.06,28.2,18.37,45.24,.1,1.35-.29,1.69-1.51,1.56-.66-.07-1.33-.05-1.99,0-2.07,.17-3.48,1.67-3.43,3.6,.04,1.85,1.41,3.22,3.36,3.46,1.19,.15,2.83-.61,3.47,.44,.5,.82-.05,2.29-.17,3.46-1.63,16.63-8,31.22-18.91,43.86Z"/><path class="c" d="M144.09,59.04c-46.77-.07-84.93,37.99-85.04,84.82-.1,46.77,37.91,84.94,84.75,85.12,46.73,.16,84.97-37.87,85.15-84.71,.19-46.83-37.96-85.15-84.86-85.22Zm58.48,136.26c-.8,.93-1.37,1.19-2.17,.1-.31-.41-.71-.75-1.09-1.1-1.76-1.6-3.86-1.65-5.29-.13-1.37,1.45-1.27,3.44,.27,5.14q2.13,2.36-.33,4.4c-13.04,10.82-28.03,16.77-44.91,18.05-1.13,.09-1.64-.1-1.52-1.34,.09-.8,.08-1.63-.02-2.43-.24-1.91-1.8-3.29-3.63-3.16-1.95,.14-3.05,1.27-3.4,3.18-.23,1.25,.7,2.98-.5,3.64-.9,.51-2.43-.06-3.68-.19-16.53-1.7-31.04-8.05-43.61-18.92-1-.86-1.03-1.4-.04-2.18,.57-.46,1.11-1,1.53-1.59,1.11-1.58,1.12-3.17-.22-4.63-1.26-1.37-3.22-1.42-4.81-.27-.98,.71-1.63,2.51-2.76,2.18-1.08-.32-1.84-1.8-2.68-2.83-10.08-12.4-15.8-26.57-17.25-42.48-.04-.37-.02-.75-.13-1.1-.5-1.81,.27-2.32,1.98-2.12,1.09,.13,2.23,.13,3.2-.54,1.35-.92,1.98-2.23,1.56-3.82-.44-1.65-1.61-2.56-3.37-2.7-3.48-.27-3.53-.29-3.19-3.79,1.59-16.64,7.96-31.22,18.84-43.89,.87-1.01,1.34-1.18,2.36-.13,2.51,2.61,4.52,2.93,6.2,1.25,1.68-1.67,1.37-3.68-1.23-6.21-1.04-1.01-.9-1.48,.11-2.35,13.33-11.48,28.77-17.8,46.3-19.12,1.07-.08,1.5,.13,1.39,1.25-.07,.8-.06,1.63,.02,2.43,.2,1.92,1.7,3.28,3.53,3.27,1.84-.02,3.26-1.38,3.5-3.31,.16-1.22-.59-2.91,.42-3.51,.88-.53,2.42,.05,3.67,.17,16.54,1.66,31.05,8.02,43.65,18.85,1.09,.93,1.12,1.54,.02,2.34-.24,.16-.42,.41-.64,.62-1.91,1.96-2.11,4.05-.52,5.6,1.52,1.49,3.56,1.3,5.45-.5q1.98-1.9,3.79,.24c11.03,13.09,17.06,28.2,18.37,45.24,.1,1.35-.29,1.69-1.51,1.56-.66-.07-1.33-.05-1.99,0-2.07,.17-3.48,1.67-3.43,3.6,.04,1.85,1.41,3.22,3.36,3.46,1.19,.15,2.83-.61,3.47,.44,.5,.82-.05,2.29-.17,3.46-1.63,16.63-8,31.22-18.91,43.86Z"/><path class="c" d="M154.49,102.81c-2.3-.57-5.58,.16-6.68-1.74-1.05-1.82-.23-4.73-.23-7.16h-.03c0-1.99,.02-3.98,0-5.97-.04-2.57-1.45-4.15-3.61-4.1-2.08,.05-3.43,1.59-3.46,4.04-.03,3.46,0,6.93,0,10.39q0,3.25-3.2,3.78c-31.74,5.18-46.55,42.57-26.85,67.85,.9,1.15,1.01,1.78-.11,2.85-3.72,3.58-7.34,7.25-10.96,10.93-1.78,1.81-1.8,3.98-.17,5.44,1.54,1.38,3.5,1.22,5.29-.56,3.68-3.62,7.34-7.25,10.93-10.96,.92-.94,1.46-.98,2.52-.17,10.35,7.9,21.96,10.63,34.75,8.15,18.83-3.66,33.33-20.89,33.79-40.08,.49-20.21-12.87-37.98-31.97-42.68Zm-10.33,76.6c-19.5,0-35.48-15.75-35.55-35.07-.07-19.84,15.73-35.71,35.57-35.72,19.33-.02,35.16,15.88,35.22,35.39,.05,19.36-15.89,35.39-35.24,35.4Z"/><path class="c" d="M161.47,152.29c-2.27,7.46-9.66,12.94-17.45,12.95-7.77,0-15.14-5.44-17.48-12.91-.62-1.98,.2-3.77,2.05-4.52,1.74-.69,3.45,0,4.43,1.81,.67,1.23,1.22,2.53,2.03,3.65,4.78,6.62,13.33,6.55,18-.14,.79-1.14,1.31-2.46,2-3.67,.99-1.74,2.78-2.36,4.52-1.58,1.74,.79,2.48,2.49,1.9,4.4Z"/><path class="c" d="M133.36,137.03c-.05,1.9-1.67,3.46-3.57,3.42-2-.03-3.6-1.76-3.47-3.75,.12-1.91,1.78-3.4,3.68-3.31,1.91,.09,3.43,1.73,3.37,3.64Z"/><path class="c" d="M161.69,136.97c-.03,1.9-1.63,3.47-3.53,3.48-2,0-3.62-1.7-3.53-3.69,.09-1.92,1.72-3.42,3.64-3.37,1.91,.05,3.45,1.67,3.42,3.58Z"/></g></svg>