<?xml version="1.0" encoding="UTF-8"?><svg id="a" xmlns="http://www.w3.org/2000/svg" viewBox="0 0 1080 1080"><defs><style>.b{fill:#f6f6f6;}.c{fill:#242424;}.d{fill:#033;}</style></defs><path class="b" d="M79.57,980.67c4.33,8.84,10.92,15.43,19.76,19.76-6.59,0-15.75,2.57-19.04-.72-3.29-3.29-.72-12.45-.72-19.04Z"/><path class="c" d="M79.57,581.83c3.07,3.59,2.54,7.19,0,10.78v-10.78Z"/><g><path class="d" d="M837.69,143.96c.05,71.56,.06,143.12-.01,214.68-.02,11.14-5.19,19.55-15.19,24.53-10.49,5.23-20.28,3.04-29.42-3.66-32.68-23.94-69.11-38.74-109.12-44.88-19.03-2.92-38.19-2.51-57.35-2.6-3.55-.01-4.54,1.16-4.52,4.61,.12,22.16,.18,44.32-.04,66.47-.04,4.6,2.33,4.43,5.56,4.5,10.74,.22,21.49-.61,32.23,1.34,40.87,7.44,69.75,44.82,66.28,86.21-3.42,40.91-37.59,73.56-78.8,73.91-60.48,.52-120.96,.31-181.44-.01-7.43-.04-9.22,1.66-9.21,9.16,.27,128.75-.01,257.5,.45,386.25,.05,16.65-4.62,28.81-20.02,35.96-.3-3.86,2.95-4.91,5.35-6.42,7.8-4.92,11.07-12.27,11.72-21.09,.26-3.58,.11-7.18,.11-10.77,0-125.45,0-250.9,.01-376.34,0-18.9,.23-19.13,18.9-19.14,56.89-.01,113.77,.1,170.66-.04,40.05-.1,71.02-26.05,78.52-65.42,7.35-38.59-18.31-78.46-56.5-88.13-11.18-2.83-22.48-2.95-33.87-3.02-10.3-.07-12.22-1.91-12.34-12-.24-18.86-.25-37.72,.01-56.58,.13-9.69,2.09-11.49,11.65-11.9,58.76-2.48,112.67,12.01,160.99,46.03,5.17,3.64,10.5,7.02,17.05,7.49,12,.85,23.14-8.34,25.35-20.86,.47-2.66,.44-5.36,.44-8.06,.01-68.56-.01-137.12,.03-205.68,.01-10.1-2.23-19.07-11.22-24.98-10.52-6.9-20.38-4.54-30.04,2.19-15.75,10.98-32.12,20.83-50.01,28.07-29.44,11.91-59.88,18.94-91.71,19.18-24.85,.18-49.7-.18-74.55,.09-38.64,.4-69.53,26.19-77,63.91-7.8,39.44,16.77,78.9,55.7,89.43,13.99,3.78,14.44,4.32,14.47,19.02,.04,17.37,.15,34.73-.05,52.1-.13,10.76-1.85,12.54-12.69,12.57-59.88,.13-119.76,.11-179.64,.01-12.92-.02-14.11-2.27-8.34-14.36,19.34-40.55,16.38-79.68-8.74-116.65-39.07-57.52-122.85-65.2-172.02-16.24-44.24,44.05-47.39,107.49-7.75,155.95,6.18,7.55,5.9,9.8-3.39,14.91-31.3,17.19-55.29,41.64-72.74,72.63-10.08,17.89-16.47,37.1-20.36,57.26-.85,4.45,1.02,10.64-5.52,12.85,3.16-6.81,2.79-14.37,4.53-21.5,13.7-55.97,45.73-97.81,96.25-125.51,1.29-.71,2.54-1.5,4.61-2.72-25.23-27.21-36.92-59.01-32.65-95.81,3.5-30.09,17.39-54.85,40.09-74.89,40.72-35.92,103.7-37.63,147.28-3.59,43.95,34.31,61.19,97.21,27.87,153.99,1.81,2.29,4.36,1.08,6.46,1.08,61.98,.08,123.96-.02,185.94,.21,6.3,.02,8.71-.9,8.5-8.05-.59-20.34-.36-40.71-.1-61.07,.07-4.98-.92-7.15-6.39-8.28-41.71-8.63-69.57-45.95-65.29-86.81,4.37-41.84,38.73-72.49,81.53-73.12,31.71-.47,63.47,1.64,95.14-1.42,43.54-4.2,82.94-19.44,118.32-45.02,10.34-7.48,20.89-10.32,32.5-3.7,9.06,5.17,13.52,13.36,13.53,23.73Z"/><path class="d" d="M994.68,410.06c-8.77,12.96-24.45,15.66-38.73,6.28-17.73-11.64-35.43-23.36-52.86-35.46-10.48-7.27-13.88-19.28-9.75-30.93,3.76-10.64,14.15-17.91,25.47-17.81,6.2,.04,11.62,2.36,16.68,5.74,16.65,11.12,33.37,22.14,49.94,33.39,14.42,9.78,18.11,25.7,9.25,38.79Z"/><path class="d" d="M895.98,158.06c-8.04-12.41-4.9-28.29,7.92-37.09,17.74-12.18,35.7-24.04,53.71-35.81,9-5.87,18.54-6.25,28.01-.97,9.17,5.12,13.34,13.29,13.84,23.52-.55,8.91-3.86,16.47-11.25,21.51-18.27,12.46-36.54,24.95-55.19,36.83-13.03,8.31-29,4.45-37.04-7.99Z"/><path class="d" d="M999.39,250.97c.16,15.39-11.82,26.97-28.27,27.21-8.36,.12-16.73,.02-25.1,.02-8.97,0-17.94,.15-26.9-.04-15.75-.33-27.56-12.09-27.47-27.08,.1-15.02,11.93-26.56,27.82-26.73,17.33-.18,34.67-.17,52,0,15.94,.16,27.76,11.6,27.92,26.62Z"/><path class="d" d="M837.69,143.96c-.01-10.37-4.47-18.56-13.53-23.73-11.61-6.62-22.16-3.78-32.5,3.7-35.38,25.58-74.78,40.82-118.32,45.02-31.67,3.06-63.43,.95-95.14,1.42-42.8,.63-77.16,31.28-81.53,73.12-4.28,40.86,23.58,78.18,65.29,86.81,5.47,1.13,6.46,3.3,6.39,8.28-.26,20.36-.49,40.73,.1,61.07,.21,7.15-2.2,8.07-8.5,8.05-61.98-.23-123.96-.13-185.94-.21-2.1,0-4.65,1.21-6.46-1.08,33.32-56.78,16.08-119.68-27.87-153.99-43.58-34.04-106.56-32.33-147.28,3.59-22.7,20.04-36.59,44.8-40.09,74.89-4.27,36.8,7.42,68.6,32.65,95.81-2.07,1.22-3.32,2.01-4.61,2.72-50.52,27.7-82.55,69.54-96.25,125.51-1.74,7.13-1.37,14.69-4.53,21.5v5.39c1.47,3.59,1.47,7.18,0,10.78v388.06c1.97,11.2,9.05,17.3,19.76,19.76H437.09c15.4-7.15,20.07-19.31,20.02-35.96-.46-128.75-.18-257.5-.45-386.25-.01-7.5,1.78-9.2,9.21-9.16,60.48,.32,120.96,.53,181.44,.01,41.21-.35,75.38-33,78.8-73.91,3.47-41.39-25.41-78.77-66.28-86.21-10.74-1.95-21.49-1.12-32.23-1.34-3.23-.07-5.6,.1-5.56-4.5,.22-22.15,.16-44.31,.04-66.47-.02-3.45,.97-4.62,4.52-4.61,19.16,.09,38.32-.32,57.35,2.6,40.01,6.14,76.44,20.94,109.12,44.88,9.14,6.7,18.93,8.89,29.42,3.66,10-4.98,15.17-13.39,15.19-24.53,.07-71.56,.06-143.12,.01-214.68Zm-54.12,166.6c-38.78-19.36-78.67-29.76-120.64-31.99-3.92-.2-4.99-1.42-4.94-5.24,.2-14.66,.18-29.34,.01-44-.04-3.64,.66-5.19,4.78-5.4,41.41-2.09,80.73-12.44,118.05-30.45,.74-.36,1.62-.42,2.74-.69v117.77Zm-179.4-61.19c0,3.15,.26,4.42-.04,5.53-2.05,7.64,5.25,20.39-3.71,22.58-26.17,6.38-43.67-1.79-48.92-18.87-4.87-15.84,6.47-32.49,23.3-34.21,.3-.03,.6-.05,.9-.04,9.19,.15,20.94-3.06,26.82,1.43,5.6,4.27,.82,16.72,1.65,23.58Zm-335.55,32.45c34.47,.17,62.51,28.48,62.44,63.04-.07,34.47-28.32,62.66-62.81,62.67-34.87,.02-63.15-28.53-62.89-63.5,.25-34.41,28.68-62.38,63.26-62.21Zm134.34,265.31c-.01,64.66,0,129.33,0,193.99s-.09,131.12,.14,196.68c.02,6.61-1.08,9.06-8.5,8.94-29.93-.5-59.88-.46-89.81-.03-7.44,.11-9.98-1.12-9.87-9.43,.53-41.61,.29-83.23,.2-124.84-.03-11.93-5.72-20.7-16.6-25.41-10.66-4.62-20.62-2.29-29,5.55-6.23,5.82-8.35,13.4-8.32,21.92,.14,41.31-.11,82.63,.24,123.94,.06,6.71-1.55,8.36-8.27,8.27-30.83-.4-61.67-.34-92.5-.03-5.86,.06-7.35-1.48-7.34-7.34,.19-114.96-.13-229.91,.26-344.87,.25-72.67,60.06-132.64,132.7-132.88,125.73-.41,251.46-.15,377.2-.11,16.7,.01,28.75,11.28,28.93,26.62,.17,15.72-11.98,27.21-29.22,27.23-69.46,.06-138.91,.02-208.36,.03-21.62,0-31.87,10.22-31.88,31.77Z"/><path class="d" d="M999.46,107.71c-.55,8.91-3.86,16.47-11.25,21.51-18.27,12.46-36.54,24.95-55.19,36.83-13.03,8.31-29,4.45-37.04-7.99-8.04-12.41-4.9-28.29,7.92-37.09,17.74-12.18,35.7-24.04,53.71-35.81,9-5.87,18.54-6.25,28.01-.97,9.17,5.12,13.34,13.29,13.84,23.52Z"/><path class="d" d="M994.68,410.06c-8.77,12.96-24.45,15.66-38.73,6.28-17.73-11.64-35.43-23.36-52.86-35.46-10.48-7.27-13.88-19.28-9.75-30.93,3.76-10.64,14.15-17.91,25.47-17.81,6.2,.04,11.62,2.36,16.68,5.74,16.65,11.12,33.37,22.14,49.94,33.39,14.42,9.78,18.11,25.7,9.25,38.79Z"/><path class="d" d="M999.39,250.97c.16,15.39-11.82,26.97-28.27,27.21-8.36,.12-16.73,.02-25.1,.02-8.97,0-17.94,.15-26.9-.04-15.75-.33-27.56-12.09-27.47-27.08,.1-15.02,11.93-26.56,27.82-26.73,17.33-.18,34.67-.17,52,0,15.94,.16,27.76,11.6,27.92,26.62Z"/></g></svg>