<?xml version="1.0" encoding="UTF-8"?><svg id="a" xmlns="http://www.w3.org/2000/svg" viewBox="0 0 1080 1080"><defs><style>.b{fill:#033;}</style></defs><path class="b" d="M616.36,314.42c-3.3,0-13.06-.03-20.51-7.51-7.47-7.5-7.43-17.05-7.42-20.64,.22-58.06,.46-118.09-.07-177.19-.22-26.64,11.14-44.72,33.75-53.75l3.57-1.43h294.22l4.02,1.88c28.42,13.26,33.05,34.1,31.94,49.26-1.12,15.37-9.55,25.7-15.8,32.14-5.34,5.49-10.65,10.97-15.96,16.46-9.92,10.25-20.1,20.77-30.36,31.17,7.33,7.22,14.57,14.48,21.64,21.57,7.78,7.81,15.83,15.88,23.79,23.68,22,21.63,17.87,43.43,13.45,54.49h0c-4.45,11.13-16.56,29.77-47.7,29.77h-.13c-84.89-.08-185.54-.13-288.39,.11h-.03Zm17.52-220.52c-3.55,2.05-5.6,5.37-5.52,14.84,.49,55.26,.32,111.23,.12,165.65,98.62-.21,194.77-.16,276.36-.09h.08c8.71,0,9.65-2.34,10.56-4.61,.97-2.42,1.95-4.92-4.33-11.1-8.1-7.94-16.23-16.1-24.09-23.98-9.8-9.83-19.94-20-30.02-29.75-2.29-2.2-9.35-8.99-9.45-19.66-.1-10.64,6.76-17.51,9.35-20.09,12.91-12.92,25.88-26.33,38.43-39.3,5.34-5.51,10.67-11.03,16.02-16.53,4.05-4.17,4.49-5.89,4.59-7.17,.2-2.71,.36-4.94-5.31-8.21h-276.78Z"/><path class="b" d="M253.54,1025.96c-5.85,0-11.83-.66-17.87-2.02-38.27-8.62-62.46-47.41-55.07-88.31,11.82-65.45,23.74-132.27,35.27-196.88,2.82-15.78,5.63-31.58,8.46-47.42-4.3,1.85-8.9,3.19-13.72,3.96-.58,.09-1.07,.16-1.48,.21-21.08,2.5-42.32-3.63-58.31-16.82-15.22-12.55-24.38-30.24-25.81-49.79-1.52-21.05-1.25-42.07-.99-62.38,.11-8.96,.23-18.22,.19-27.24-.02-5.54-.06-11.06-.09-16.58-.16-23.76-.32-48.34,.8-72.72,1.46-31.83,15.07-61.85,38.33-84.52,23.22-22.64,53.56-35.52,85.43-36.28,25.25-.59,50.77-.47,75.46-.35,10.04,.05,20.43,.1,30.62,.1h55.73c72.75-.03,147.98-.06,221.99,0,35.22,.03,63.54,19.37,73.91,50.47,7.71,23.12,4.25,47.52-9.5,66.93-13.99,19.75-36.41,31.32-61.52,31.73-21.36,.34-42.96,.26-63.85,.18-15.09-.06-30.17-.08-45.25-.04-11.27,.02-22.81,.05-34.36-.02,0,14.48-.05,29-.1,43.15-.14,38.27-.28,77.83,.69,116.58,.34,13.57,3.24,27.56,6.32,42.38,1.29,6.23,2.63,12.66,3.78,19.14,5.27,29.64,10.57,59.27,15.87,88.9,8.8,49.16,17.9,99.99,26.66,150.02,7.11,40.6-18.12,78.33-57.44,85.89-40.98,7.9-79.12-16.63-88.71-57.06-12.12-51.09-24.39-103.03-36.28-153.35-4.12,17.35-8.21,34.56-12.29,51.78-3.46,14.61-6.9,29.22-10.33,43.83-4.45,18.95-9.06,38.55-13.66,57.82-8.51,35.71-38.29,58.7-72.88,58.71Zm13.84-348.13c-4.06,22.71-8.1,45.35-12.13,67.95-11.53,64.63-23.45,131.46-35.29,196.96-3.57,19.75,7.19,38.27,24.5,42.17,20.46,4.61,38.17-6.46,43.05-26.95,4.59-19.21,9.18-38.77,13.63-57.69,3.44-14.64,6.88-29.27,10.35-43.9,7.18-30.33,14.39-60.64,21.8-91.76l27.9-117.33,20.68,75.31c.45,1.65,.84,3.03,1.18,4.23,.72,2.56,1.29,4.58,1.79,6.75,5.33,22.54,10.67,45.15,16.01,67.76,12.13,51.33,24.66,104.4,37.05,156.59,4.62,19.48,22.38,30.83,42.22,27.01,17.67-3.4,28.91-20.84,25.61-39.71-8.76-49.96-17.85-100.75-26.64-149.88-5.31-29.65-10.61-59.3-15.88-88.96-1.05-5.91-2.27-11.78-3.56-18-3.3-15.9-6.71-32.34-7.14-49.51-.99-39.32-.85-79.18-.71-117.73,.07-18.55,.14-37.74,.08-56.58-.01-3.02-.05-12.25,7.26-19.48,7.29-7.22,16.52-7.1,19.56-7.06,15.77,.19,31.89,.16,47.48,.13,15.15-.03,30.31-.01,45.47,.04,20.7,.08,42.1,.16,63.06-.18,12.21-.2,22.98-5.61,29.52-14.85,6.3-8.9,7.83-20.26,4.19-31.16-4.82-14.47-18.28-23.12-35.99-23.13-73.98-.06-149.2-.03-221.94-.01h-55.74c-10.29,.01-20.72-.03-30.81-.08-24.41-.12-49.65-.23-74.33,.34-44.68,1.06-82.7,38.14-84.74,82.64-1.07,23.34-.91,47.38-.76,70.63,.04,5.56,.07,11.12,.09,16.67,.04,9.35-.08,18.79-.19,27.92-.26,20.38-.51,39.63,.89,58.98,.8,10.95,6.63,17.92,11.37,21.84,7.59,6.26,17.82,9.16,28.08,7.96,8.12-1.3,14.22-8.54,14.22-16.86v-184.81c0-6.94,2.88-13.68,7.9-18.49,4.94-4.73,11.65-7.28,18.44-6.99,6.32,.27,12.27,2.89,16.75,7.37,4.78,4.78,7.4,11.12,7.4,17.86v214.87c0,3.15-.58,6.22-1.69,9.1Z"/><path class="b" d="M635.6,1026.09c-8.66,0-17.22-2.39-24.71-7.05-11.56-7.19-19.36-19.06-21.4-32.57-.84-5.69-.91-11.08-.91-15.7,0-34.15,0-68.29,0-102.44,0-113.23,0-230.32-.22-345.46-.01-4.09-.04-14.99,8.41-23.03,8.4-7.99,19.45-7.4,23.08-7.21,10.49,.54,22.62,.87,33.23-2.16,10.99-3.12,18.38,1.06,21.8,3.82,3.43,2.77,9.08,9.15,8.34,20.69h0c-.04,.64-.02,1.66,0,2.75,.01,.78,.03,1.56,.03,2.33v282.77c0,56.89,.01,113.78-.02,170.66-.04,32.88-18.1,45.53-33.24,50.35-4.71,1.5-9.56,2.24-14.37,2.24Zm-7.23-493.12c.21,111.9,.21,225.45,.21,335.36,0,34.15,0,68.29,0,102.44,0,3.34,.04,6.85,.47,9.8,.37,2.42,1.82,3.79,2.97,4.51,1,.62,3.08,1.53,5.82,.66,3.1-.99,5.35-1.7,5.36-12.27,.03-56.87,.03-113.75,.03-170.62v-270.27c-5.11,.4-10.08,.48-14.86,.4Zm14.92-20.56h0Z"/><path class="b" d="M362.31,314.22c-26.48,0-51.61-10.48-70.9-29.59-19.7-19.52-30.52-45.25-30.45-72.45,.05-27.01,10.6-52.72,29.71-72.39,19.19-19.75,44.5-30.83,71.26-31.19,26.15-.37,51.29,9.97,70.78,29.08,20.01,19.61,31.59,46.68,31.77,74.26h0c.18,26.86-10.29,52.34-29.48,71.74-19.15,19.36-44.54,30.21-71.51,30.54-.39,0-.79,0-1.18,0Zm.9-165.63c-.25,0-.49,0-.74,0-33.27,.45-61.43,29.6-61.5,63.67-.04,16.42,6.56,32.02,18.6,43.94,11.91,11.8,27.34,18.19,43.45,18,33.54-.41,61.69-28.81,61.47-62.01h0c-.11-17-7.32-33.75-19.77-45.96-11.63-11.4-26.34-17.65-41.5-17.65Z"/></svg>