<?xml version="1.0" standalone="no"?>
<!DOCTYPE svg PUBLIC "-//W3C//DTD SVG 20010904//EN"
 "http://www.w3.org/TR/2001/REC-SVG-20010904/DTD/svg10.dtd">
<svg version="1.0" xmlns="http://www.w3.org/2000/svg"
 width="440.000000pt" height="440.000000pt" viewBox="0 0 440.000000 440.000000"
 preserveAspectRatio="xMidYMid meet">

<g transform="translate(0.000000,440.000000) scale(0.100000,-0.100000)"
fill="#000000" stroke="none">
<path d="M1679 4327 c-51 -24 -132 -93 -184 -158 -50 -61 -125 -172 -125 -183
0 -6 -41 -98 -82 -183 -16 -35 -27 -67 -24 -72 3 -5 -1 -14 -9 -21 -8 -7 -15
-19 -15 -26 0 -7 -11 -38 -25 -68 -30 -66 -30 -62 -4 -89 20 -22 20 -22 35 -2
9 11 18 33 21 48 4 21 8 25 14 15 7 -10 9 -10 9 0 0 6 6 12 14 12 11 0 13 -10
9 -42 -6 -50 -33 -118 -46 -118 -5 0 -6 -7 -3 -16 3 -9 3 -21 -1 -27 -5 -7
-10 0 -13 18 -3 17 -12 30 -20 31 -8 0 -23 4 -32 8 -27 12 -53 2 -50 -18 2 -9
-11 -59 -27 -109 -28 -83 -64 -256 -77 -362 -5 -38 -8 -50 -32 -105 -28 -65
-42 -141 -36 -193 5 -38 2 -64 -9 -88 -8 -19 -18 -56 -22 -84 -4 -27 -11 -72
-17 -100 -5 -27 -11 -68 -15 -90 -3 -22 -9 -44 -14 -49 -5 -6 -9 -18 -9 -27 0
-10 -4 -19 -10 -21 -5 -1 -14 -23 -19 -48 -14 -69 -67 -205 -78 -203 -6 1 -13
-27 -17 -62 -4 -36 -9 -72 -12 -80 -5 -13 8 -15 87 -15 52 0 123 -6 159 -12
92 -17 280 -8 345 16 11 4 32 12 48 18 15 6 27 16 27 22 0 29 104 206 121 206
5 0 25 -18 46 -41 l38 -40 1 63 c1 35 -2 65 -7 68 -5 3 -4 19 0 35 5 17 10 23
10 15 1 -12 4 -11 12 3 8 14 3 29 -21 70 -18 29 -40 61 -50 72 -22 24 -90 155
-90 173 0 6 -4 12 -9 12 -5 0 -12 18 -16 40 -5 28 -12 40 -23 40 -13 0 -14 2
-4 8 19 13 5 68 -18 68 -14 0 -16 -4 -9 -18 7 -14 6 -16 -5 -12 -8 3 -22 31
-31 62 -9 31 -26 82 -37 112 -21 59 -41 229 -28 244 4 4 11 -2 15 -14 5 -14
13 -20 28 -18 18 3 23 14 34 77 18 109 41 175 74 210 46 51 86 113 111 174 14
35 48 83 88 128 102 111 172 179 187 179 7 0 18 9 25 20 7 11 18 20 24 20 6 0
17 6 23 14 7 8 23 17 38 21 14 3 32 13 40 20 18 19 57 19 86 1 12 -8 47 -17
77 -21 30 -4 66 -13 80 -20 14 -7 50 -20 80 -29 36 -11 70 -30 98 -56 24 -22
45 -40 48 -40 15 0 104 -102 104 -120 0 -11 4 -20 10 -20 5 0 13 -12 16 -27
10 -38 32 -71 75 -110 21 -19 44 -48 53 -67 25 -53 76 -304 77 -380 0 -39 3
-65 6 -58 2 6 9 12 14 12 11 0 0 -204 -12 -238 -6 -14 -14 -20 -20 -16 -9 5
-10 -1 -5 -20 4 -15 2 -26 -4 -26 -6 0 -6 -9 -1 -23 10 -26 -3 -57 -23 -57 -7
0 -18 -19 -25 -42 -22 -76 -89 -201 -150 -283 -34 -44 -61 -83 -61 -87 0 -5
-6 -8 -13 -8 -7 0 -18 -9 -25 -20 -7 -12 -8 -20 -2 -20 5 0 10 -25 10 -55 0
-37 7 -70 21 -97 17 -33 20 -53 16 -97 -9 -84 -30 -154 -44 -140 -9 9 -19 6
-39 -10 -15 -11 -22 -21 -15 -21 24 0 10 -18 -19 -24 -35 -6 -42 -36 -9 -36
15 0 19 -5 15 -15 -9 -26 8 -16 36 19 15 19 23 36 18 38 -6 2 -6 9 0 18 8 12
12 12 18 2 15 -23 122 105 127 151 1 12 3 33 5 47 1 14 4 19 7 13 2 -7 11 -13
19 -13 17 0 60 -67 80 -123 16 -46 39 -66 75 -67 14 0 39 -6 55 -14 32 -16 80
-20 201 -18 79 2 83 3 89 27 3 13 1 46 -5 72 -6 26 -13 65 -16 86 -3 21 -10
35 -15 32 -18 -11 -40 50 -30 84 5 19 5 31 -1 31 -5 0 -9 -11 -9 -25 0 -30
-16 -33 -23 -5 -3 11 1 27 10 35 10 11 14 36 14 88 -1 125 1 150 10 136 5 -8
9 -28 9 -45 0 -31 28 -99 37 -90 2 2 0 13 -6 25 -6 11 -13 48 -15 83 -2 35
-11 113 -20 173 -19 132 -20 169 -5 160 7 -5 9 8 4 41 -15 118 -26 192 -35
229 -5 22 -12 62 -15 89 -3 26 -9 65 -14 85 -6 20 -19 81 -31 136 -11 55 -27
129 -35 165 -9 36 -29 132 -45 213 -42 209 -82 307 -189 472 -50 77 -179 210
-214 221 -12 4 -33 14 -47 24 -152 105 -358 160 -466 125 -27 -9 -61 -20 -76
-25 -15 -5 -27 -6 -25 -2 1 4 -8 17 -21 30 -18 18 -37 24 -90 27 -41 3 -77 0
-93 -8z m-449 -932 c0 -1 -7 -8 -15 -15 -13 -10 -15 -9 -15 8 0 15 5 20 15 16
8 -4 15 -7 15 -9z m168 -142 c-11 -27 -25 -49 -29 -51 -5 -2 -9 -12 -9 -23 0
-10 -5 -19 -11 -19 -6 0 -8 9 -4 20 4 11 2 20 -4 20 -20 0 -12 32 9 37 23 6
26 19 8 26 -7 3 -3 6 10 6 12 1 22 7 22 16 0 8 6 15 14 15 12 0 11 -9 -6 -47z
m-208 -56 c0 -18 -2 -19 -10 -7 -13 20 -13 43 0 35 6 -3 10 -16 10 -28z m105
-115 c-3 -3 -11 0 -18 7 -9 10 -8 11 6 5 10 -3 15 -9 12 -12z m1512 -134 c-3
-8 -6 -5 -6 6 -1 11 2 17 5 13 3 -3 4 -12 1 -19z m-1399 -376 c2 -7 -3 -12
-12 -12 -9 0 -16 7 -16 16 0 17 22 14 28 -4z m1629 -59 c-3 -10 -5 -2 -5 17 0
19 2 27 5 18 2 -10 2 -26 0 -35z m-1601 -1 c1 -18 -2 -32 -7 -32 -5 0 -9 9 -9
19 0 11 -3 27 -7 37 -4 12 -2 15 8 12 7 -2 14 -19 15 -36z m1581 -179 c-3 -10
-5 -4 -5 12 0 17 2 24 5 18 2 -7 2 -21 0 -30z m-1976 -81 c-18 -73 -44 -155
-58 -182 -13 -25 -13 -25 -13 10 0 40 49 200 62 200 4 0 8 10 9 23 0 12 3 16
6 9 3 -7 0 -34 -6 -60z"/>
<path d="M2330 3323 c-14 -6 -47 -32 -73 -56 l-48 -44 -5 -89 c-6 -102 1 -117
71 -146 64 -28 112 -33 130 -14 9 9 12 16 6 16 -6 0 -11 5 -11 10 0 6 17 10
38 10 38 0 82 32 62 45 -8 5 -4 51 5 63 7 8 55 -20 55 -33 0 -11 11 -15 40
-15 45 0 45 1 26 38 -23 43 -71 81 -113 90 l-38 8 52 7 c109 13 125 65 35 111
-27 14 -53 17 -121 14 -47 -2 -97 -8 -111 -15z m40 -262 c0 -14 -6 -17 -24
-14 -20 4 -22 8 -13 19 17 19 37 17 37 -5z"/>
<path d="M1645 3270 c-37 -12 -64 -47 -65 -82 0 -21 6 -29 26 -34 15 -4 29 -2
33 4 3 5 31 10 61 10 50 1 53 -1 36 -14 -11 -8 -32 -14 -47 -14 -15 0 -34 -6
-41 -13 -7 -7 -25 -18 -40 -24 -16 -7 -28 -17 -28 -23 0 -12 2 -12 34 0 17 6
26 6 26 0 0 -15 -38 -50 -55 -50 -8 0 -15 -4 -15 -10 0 -16 33 -11 68 10 41
25 52 25 52 -1 0 -11 8 -31 18 -44 16 -20 27 -23 74 -22 33 1 56 -2 55 -8 -1
-5 10 -11 26 -13 19 -2 27 1 27 12 0 9 6 16 13 16 7 0 30 15 50 33 41 36 46
64 26 157 -9 42 -14 50 -34 50 -12 0 -28 6 -34 14 -30 36 -203 66 -266 46z
m213 -230 c29 -27 28 -33 -8 -47 -35 -13 -44 -4 -31 30 5 14 7 28 4 31 -17 17
16 3 35 -14z"/>
<path d="M1361 2858 c-1 -21 4 -38 9 -38 12 0 12 27 0 55 -7 16 -9 13 -9 -17z"/>
<path d="M2220 2672 c0 -5 -11 -14 -25 -20 -14 -6 -25 -16 -25 -22 0 -11 75
24 85 40 3 5 -3 10 -14 10 -12 0 -21 -4 -21 -8z"/>
<path d="M1985 2649 c-12 -19 2 -21 32 -5 l28 15 -27 1 c-15 0 -30 -5 -33 -11z"/>
<path d="M2165 2505 c-39 -6 -76 -15 -84 -19 -7 -5 -38 -10 -69 -12 -32 -2
-86 -12 -121 -24 -35 -11 -70 -20 -77 -20 -8 0 -14 -4 -14 -9 0 -15 93 -18
123 -3 27 13 43 13 168 -4 31 -4 62 0 95 11 27 9 83 18 124 20 89 3 130 12
130 30 0 9 -11 12 -39 8 -21 -3 -48 0 -60 7 -48 25 -89 29 -176 15z"/>
<path d="M2130 2369 c0 -5 9 -9 20 -9 11 0 20 2 20 4 0 2 -9 6 -20 9 -11 3
-20 1 -20 -4z"/>
<path d="M1875 1994 c11 -4 25 -10 30 -14 15 -12 132 -41 199 -49 44 -6 73 -4
113 9 59 18 85 37 62 44 -38 12 -77 14 -87 4 -10 -10 -244 -6 -307 6 -16 3
-21 3 -10 0z"/>
<path d="M3090 1890 c0 -5 5 -10 10 -10 6 0 10 5 10 10 0 6 -4 10 -10 10 -5 0
-10 -4 -10 -10z"/>
<path d="M1770 1826 c0 -2 12 -12 28 -21 l27 -18 -19 21 c-17 20 -36 29 -36
18z"/>
<path d="M1830 1776 c0 -7 143 -118 159 -122 9 -3 6 1 -6 7 -13 7 -23 15 -23
19 0 10 -110 100 -121 100 -5 0 -9 -2 -9 -4z"/>
<path d="M3173 1717 c-6 -13 -8 -29 -3 -36 4 -8 10 -1 14 20 8 40 3 47 -11 16z"/>
<path d="M3934 1297 c3 -15 1 -29 -6 -33 -6 -4 -8 -3 -5 3 8 12 -36 23 -64 16
-10 -3 -19 -9 -19 -14 0 -5 -5 -9 -11 -9 -16 0 -38 -31 -39 -52 0 -28 42 -22
85 12 21 17 46 30 56 30 14 0 19 7 19 29 0 17 -5 33 -11 37 -8 5 -10 -1 -5
-19z m-74 -64 c-8 -3 -23 -12 -32 -21 -16 -13 -18 -13 -18 0 0 21 10 28 39 27
15 0 20 -3 11 -6z"/>
<path d="M2370 1291 c0 -12 5 -21 10 -21 6 0 10 6 10 14 0 8 -4 18 -10 21 -5
3 -10 -3 -10 -14z"/>
<path d="M2362 1240 c0 -14 2 -19 5 -12 2 6 2 18 0 25 -3 6 -5 1 -5 -13z"/>
<path d="M3895 1165 c-61 -29 -98 -62 -91 -80 3 -8 8 -42 12 -77 8 -77 35
-108 96 -108 l38 0 0 145 c0 80 -1 145 -2 145 -2 -1 -26 -12 -53 -25z"/>
<path d="M3800 1165 c0 -19 11 -19 36 0 18 14 18 14 -8 15 -18 0 -28 -5 -28
-15z"/>
<path d="M987 518 c8 -59 13 -61 13 -5 0 26 -4 47 -9 47 -5 0 -7 -19 -4 -42z"/>
<path d="M3840 228 c0 -25 3 -86 6 -136 l7 -92 48 0 49 0 0 124 c0 69 -4 127
-9 130 -5 4 -30 9 -55 12 l-46 7 0 -45z"/>
</g>
</svg>
