<?xml version="1.0" standalone="no"?>
<!DOCTYPE svg PUBLIC "-//W3C//DTD SVG 20010904//EN"
 "http://www.w3.org/TR/2001/REC-SVG-20010904/DTD/svg10.dtd">
<svg version="1.0" xmlns="http://www.w3.org/2000/svg"
 width="1114.000000pt" height="1125.000000pt" viewBox="0 0 1114.000000 1125.000000"
 preserveAspectRatio="xMidYMid meet">

<g transform="translate(0.000000,1125.000000) scale(0.100000,-0.100000)"
fill="#000000" stroke="none">
<path d="M6910 11243 c-8 -3 -25 -15 -37 -26 l-23 -20 0 -598 c0 -329 3 -605
6 -614 17 -44 30 -45 649 -45 l587 0 29 29 29 29 0 596 0 595 -24 28 -24 28
-589 2 c-323 1 -595 -1 -603 -4z m298 -207 c32 -30 37 -40 37 -80 0 -38 -5
-51 -33 -78 -27 -27 -40 -33 -77 -33 -82 0 -139 89 -101 160 39 72 114 85 174
31z m620 -278 c40 -12 87 -58 109 -107 14 -30 18 -79 21 -279 l4 -243 -99 3
-98 3 -5 205 c-3 113 -9 212 -13 221 -19 38 -105 51 -146 23 -44 -31 -51 -69
-51 -269 l0 -185 -100 0 -100 0 0 315 0 315 95 0 95 0 0 -42 0 -42 39 38 c62
60 147 75 249 44z m-598 -313 l0 -316 -97 3 -98 3 -3 300 c-1 165 0 305 3 312
3 9 32 13 100 13 l95 0 0 -315z"/>
<path d="M3692 11055 c-40 -18 -66 -73 -57 -121 15 -81 127 -114 186 -55 24
24 29 38 29 75 0 86 -79 137 -158 101z"/>
<path d="M2980 10590 l0 -460 285 0 285 0 0 95 0 95 -185 0 -185 0 0 365 0
365 -100 0 -100 0 0 -460z"/>
<path d="M4660 10590 l0 -460 90 0 89 0 3 158 3 157 104 -154 c58 -84 110
-155 116 -157 6 -3 61 -3 122 -2 l112 3 -75 100 c-42 55 -98 130 -124 167
l-49 67 126 143 126 143 -113 3 c-132 3 -112 15 -247 -144 -48 -57 -91 -104
-95 -104 -5 0 -8 122 -8 270 l0 270 -90 0 -90 0 0 -460z"/>
<path d="M6460 10875 c0 -96 -4 -175 -9 -175 -5 0 -15 7 -22 17 -47 56 -204
74 -291 33 -104 -49 -159 -144 -165 -290 -5 -108 13 -177 66 -240 94 -115 289
-133 397 -38 l34 30 0 -41 0 -41 90 0 90 0 0 460 0 460 -95 0 -95 0 0 -175z
m-73 -286 c105 -51 112 -210 13 -277 -49 -33 -146 -28 -186 8 -38 37 -54 73
-54 127 0 66 27 113 80 141 55 28 92 28 147 1z"/>
<path d="M4222 10749 c-23 -12 -51 -32 -61 -45 -26 -33 -31 -30 -31 16 l0 40
-90 0 -90 0 0 -315 0 -315 95 0 95 0 0 178 c0 97 5 194 10 214 14 49 52 78
102 78 96 0 108 -31 108 -280 l0 -190 95 0 95 0 0 223 c0 254 -10 309 -64 363
-57 57 -184 73 -264 33z"/>
<path d="M5500 10761 c-96 -30 -178 -103 -210 -187 -25 -67 -27 -180 -4 -247
22 -65 92 -140 162 -173 80 -39 203 -45 282 -15 64 24 140 76 140 96 0 7 -28
33 -62 58 l-63 45 -37 -34 c-58 -52 -136 -57 -193 -12 -25 20 -55 67 -55 88 0
7 75 10 226 10 l227 0 -7 83 c-12 138 -64 227 -161 273 -41 20 -65 24 -135 23
-47 0 -96 -4 -110 -8z m145 -135 c34 -15 57 -42 70 -83 l6 -23 -130 0 c-144 0
-146 1 -111 58 34 55 100 75 165 48z"/>
<path d="M3650 10445 l0 -315 95 0 95 0 0 315 0 315 -95 0 -95 0 0 -315z"/>
<path d="M0 8540 l0 -490 170 0 170 0 0 320 0 320 490 0 490 0 0 -1800 0
-1800 -260 0 -260 0 0 -150 0 -150 705 0 705 0 0 150 0 150 -260 0 -260 0 0
1800 0 1800 490 0 490 0 0 -320 0 -320 170 0 170 0 0 490 0 490 -1505 0 -1505
0 0 -490z"/>
<path d="M5360 9020 c-379 -39 -703 -154 -1005 -355 -494 -329 -816 -816 -926
-1399 -27 -140 -37 -467 -20 -612 50 -422 215 -804 492 -1136 430 -516 1123
-809 1794 -759 418 31 746 144 1092 374 216 144 451 386 595 612 300 472 403
1028 293 1572 -178 875 -900 1553 -1800 1688 -124 19 -401 27 -515 15z m505
-334 c438 -80 827 -302 1102 -629 557 -664 575 -1597 45 -2276 -460 -589
-1229 -842 -1952 -642 -587 163 -1071 625 -1253 1196 -70 218 -81 293 -82 550
0 259 15 362 81 564 45 139 157 362 241 481 88 124 319 355 443 442 233 164
533 283 820 324 126 17 433 12 555 -10z"/>
<path d="M8180 8831 l0 -151 243 -2 242 -3 0 -1790 0 -1790 -242 -3 -243 -2 0
-150 0 -150 735 0 735 0 0 150 0 150 -305 0 -305 0 0 760 0 760 419 0 c431 0
559 7 718 40 594 123 953 556 953 1147 0 243 -67 472 -196 670 -49 75 -202
228 -279 278 -152 100 -326 168 -529 207 -107 21 -142 22 -1028 25 l-918 4 0
-150z m1732 -181 c256 -25 461 -120 619 -287 148 -157 219 -342 219 -568 0
-373 -222 -678 -584 -801 -146 -50 -196 -54 -677 -54 l-449 0 0 853 c0 470 3
857 7 860 10 11 755 8 865 -3z"/>
<path d="M360 3336 c-147 -42 -259 -150 -301 -288 -32 -104 -25 -239 17 -328
17 -36 44 -80 59 -98 51 -61 162 -128 322 -197 262 -112 317 -144 365 -216 84
-125 14 -301 -136 -344 -121 -35 -248 -4 -334 83 -49 48 -98 144 -108 209 l-6
43 -104 0 -104 0 0 -260 0 -260 105 0 105 0 0 66 0 67 44 -41 c88 -81 205
-122 346 -122 260 0 447 153 480 393 21 152 -24 281 -133 384 -70 65 -141 105
-337 188 -182 77 -223 99 -272 143 -104 94 -104 240 0 334 41 37 120 68 172
68 46 0 133 -31 178 -63 55 -39 95 -100 116 -177 l17 -60 100 0 99 0 0 235 0
235 -105 0 -105 0 0 -56 0 -56 -37 32 c-20 18 -67 47 -103 64 -59 28 -75 31
-180 33 -71 1 -132 -3 -160 -11z"/>
<path d="M10349 3326 c-117 -41 -205 -118 -253 -221 -84 -178 -49 -384 88
-513 68 -65 113 -90 335 -187 186 -81 254 -120 298 -167 77 -82 70 -231 -14
-315 -109 -110 -326 -93 -443 33 -47 51 -87 131 -98 196 l-8 43 -107 3 -107 3
0 -261 0 -260 105 0 105 0 0 60 c0 33 2 60 5 60 3 0 28 -17 55 -39 97 -77 197
-111 327 -111 152 0 262 40 360 132 95 91 140 215 130 365 -4 63 -12 97 -35
145 -64 135 -154 202 -430 321 -208 89 -277 129 -315 185 -78 113 -39 265 85
329 42 21 67 27 123 27 92 0 160 -29 220 -96 42 -47 85 -137 85 -178 0 -19 7
-20 105 -20 l105 0 0 235 0 235 -105 0 -105 0 0 -55 0 -55 -61 45 c-83 61
-164 85 -288 85 -75 0 -111 -6 -162 -24z"/>
<path d="M1240 3105 l0 -225 105 0 105 0 0 120 0 120 145 0 145 0 0 -625 0
-625 -95 0 -95 0 0 -95 0 -95 315 0 315 0 0 95 0 95 -100 0 -100 0 2 623 3
622 148 3 147 3 0 -121 0 -120 105 0 105 0 0 225 0 225 -625 0 -625 0 0 -225z"/>
<path d="M2760 3230 l0 -100 106 0 c87 0 105 -3 102 -15 -2 -8 -93 -291 -203
-629 l-200 -616 -62 0 -63 0 0 -95 0 -95 270 0 270 0 0 95 0 95 -85 0 c-47 0
-85 3 -85 8 0 4 20 72 45 152 25 80 45 146 45 148 0 1 129 1 287 0 l287 -3 48
-150 c26 -82 48 -151 48 -152 0 -2 -38 -3 -85 -3 l-85 0 0 -95 0 -95 275 0
275 0 0 95 0 95 -58 0 -58 0 -239 730 -239 730 -298 0 -298 0 0 -100z m539
-495 c56 -181 101 -333 101 -337 0 -10 -430 -10 -430 -1 0 10 201 666 207 676
3 5 8 5 12 0 4 -4 54 -156 110 -338z"/>
<path d="M4090 3231 l0 -101 80 0 80 0 0 -630 0 -630 -80 0 -80 0 0 -95 0 -95
305 0 305 0 0 95 0 95 -105 0 -105 0 2 238 3 237 137 3 136 3 214 -336 213
-335 168 0 167 0 0 95 0 95 -82 0 -83 0 -165 252 c-91 138 -166 256 -167 262
-1 6 33 28 75 48 164 78 252 220 252 408 0 233 -130 399 -367 467 -49 14 -125
17 -480 21 l-423 4 0 -101z m831 -131 c81 -25 130 -66 165 -136 55 -112 28
-254 -63 -334 -74 -65 -119 -75 -338 -75 l-190 0 -3 283 -2 282 184 0 c155 0
194 -3 247 -20z"/>
<path d="M5550 3105 l0 -225 105 0 104 0 3 118 3 117 148 3 147 3 0 -626 0
-625 -95 0 -95 0 0 -95 0 -95 310 0 310 0 0 95 0 95 -95 0 -95 0 0 625 0 626
148 -3 147 -3 3 -117 3 -118 104 0 105 0 0 225 0 225 -630 0 -630 0 0 -225z"/>
<path d="M6950 3230 l0 -100 80 0 80 0 0 -523 c0 -431 3 -533 15 -580 44 -169
157 -283 339 -344 76 -25 92 -27 256 -27 164 0 180 2 257 27 93 31 186 90 239
150 50 57 101 169 114 247 6 38 10 269 10 558 l0 492 80 0 80 0 0 100 0 100
-295 0 -295 0 0 -100 0 -100 95 0 95 0 0 -487 c0 -519 -3 -552 -50 -628 -31
-50 -95 -102 -159 -127 -46 -18 -76 -22 -166 -22 -140 0 -205 23 -280 98 -91
91 -89 75 -93 659 l-3 507 96 0 95 0 0 100 0 100 -295 0 -295 0 0 -100z"/>
<path d="M8660 3231 l0 -101 80 0 80 0 0 -630 0 -630 -80 0 -80 0 0 -95 0 -95
305 0 305 0 0 95 0 95 -100 0 -100 0 0 235 0 235 178 0 c203 0 280 13 380 62
185 91 286 293 254 506 -24 153 -110 277 -241 346 -124 65 -151 68 -588 73
l-393 5 0 -101z m775 -132 c122 -37 205 -146 205 -269 0 -113 -74 -218 -185
-260 -51 -20 -85 -24 -222 -28 l-163 -4 0 291 0 291 149 0 c122 0 161 -4 216
-21z"/>
<path d="M3860 1130 l0 -40 65 0 65 0 0 -495 0 -495 -65 0 -65 0 0 -40 0 -40
185 0 185 0 0 40 0 40 -70 0 -70 0 0 495 0 495 70 0 70 0 0 40 0 40 -185 0
-185 0 0 -40z"/>
<path d="M5740 1136 l0 -35 53 -3 52 -3 3 -245 2 -245 -42 49 c-62 73 -139
106 -245 106 -114 0 -181 -26 -254 -99 -79 -79 -103 -144 -103 -276 0 -80 5
-111 23 -157 31 -79 98 -150 178 -190 59 -29 75 -32 153 -32 74 0 94 4 143 27
32 16 75 49 102 79 l45 50 0 -71 0 -71 100 0 100 0 0 40 0 40 -55 0 -55 0 0
535 0 535 -100 0 -100 0 0 -34z m-44 -484 c50 -25 100 -81 128 -141 30 -67 29
-187 -3 -259 -28 -63 -102 -133 -159 -150 -98 -30 -204 -6 -272 61 -113 110
-121 305 -18 422 61 70 125 97 213 92 45 -2 85 -11 111 -25z"/>
<path d="M6225 1089 c-33 -19 -45 -41 -45 -81 0 -49 28 -78 74 -78 48 0 65 8
82 42 18 34 11 78 -15 102 -23 21 -71 29 -96 15z"/>
<path d="M4651 739 c-25 -11 -64 -36 -88 -55 l-43 -35 0 45 0 46 -95 0 -95 0
0 -35 c0 -35 0 -35 45 -35 l45 0 0 -285 0 -285 -45 0 -45 0 0 -40 0 -40 150 0
150 0 0 40 0 40 -55 0 -55 0 0 229 0 229 40 35 c142 129 318 109 369 -42 7
-21 11 -113 11 -242 l0 -209 -50 0 -50 0 0 -40 0 -40 145 0 145 0 0 39 0 40
-47 3 -48 3 -5 250 c-5 271 -7 279 -67 339 -47 48 -98 66 -188 66 -59 0 -92
-6 -124 -21z"/>
<path d="M6738 746 c-57 -20 -123 -63 -152 -97 -103 -122 -123 -303 -50 -449
65 -129 170 -192 319 -193 115 -1 196 38 262 128 l22 30 1 -72 0 -73 100 0
100 0 0 39 0 40 -52 3 -53 3 0 280 0 280 58 3 57 3 0 34 0 35 -105 0 -105 0 0
-64 0 -64 -57 57 c-40 40 -73 63 -107 74 -59 20 -185 22 -238 3z m237 -90
c132 -61 195 -220 149 -376 -20 -68 -108 -160 -170 -178 -98 -29 -193 -9 -264
55 -67 60 -94 126 -95 228 0 92 24 157 78 213 78 82 201 105 302 58z"/>
<path d="M6110 705 l0 -35 55 0 55 0 0 -285 0 -285 -55 0 -55 0 0 -40 0 -40
155 0 155 0 0 39 0 40 -52 3 -53 3 -3 318 -2 317 -100 0 -100 0 0 -35z"/>
</g>
</svg>
