<?xml version="1.0" encoding="iso-8859-1"?>
<!-- Generator: Adobe Illustrator 26.2.1, SVG Export Plug-In . SVG Version: 6.00 Build 0)  -->
<svg version="1.2" baseProfile="tiny" id="Layer_1" xmlns="http://www.w3.org/2000/svg" xmlns:xlink="http://www.w3.org/1999/xlink"
	 x="0px" y="0px" viewBox="0 0 145 62.2" overflow="visible" xml:space="preserve">
<g>
	<linearGradient id="SVGID_1_" gradientUnits="userSpaceOnUse" x1="18.7363" y1="35.2543" x2="101.6054" y2="35.2543">
		<stop  offset="0" style="stop-color:#FCAE16"/>
		<stop  offset="3.058928e-02" style="stop-color:#FCB323"/>
		<stop  offset="0.1548" style="stop-color:#FDC451"/>
		<stop  offset="0.2832" style="stop-color:#FED37A"/>
		<stop  offset="0.4142" style="stop-color:#FEDF9A"/>
		<stop  offset="0.5485" style="stop-color:#FEE8B4"/>
		<stop  offset="0.6873" style="stop-color:#FFEFC6"/>
		<stop  offset="0.8336" style="stop-color:#FFF3D1"/>
		<stop  offset="1" style="stop-color:#FFF4D4"/>
	</linearGradient>
	<path fill="url(#SVGID_1_)" d="M101.6,33.3c0,2.4-0.1,5.1-0.1,5.1S78.3,50.1,38.7,51.7l0,0l-0.1-0.2L18.7,18.8l0,0v0h9.4l1.4,2.4
		l2.4,4.1l10,17.2c0,0,8.2,0.4,15.7-0.1c0.7,0,1.5-0.1,2.2-0.2C72.2,41.1,84.1,40.3,101.6,33.3z"/>
	
		<linearGradient id="SVGID_00000019663653787361072280000008998366509557010870_" gradientUnits="userSpaceOnUse" x1="101.6045" y1="27.3685" x2="129.4533" y2="27.3685">
		<stop  offset="0" style="stop-color:#FFF4D4"/>
		<stop  offset="1" style="stop-color:#FCAE16"/>
	</linearGradient>
	<path fill="url(#SVGID_00000019663653787361072280000008998366509557010870_)" d="M129.5,16.4c-0.3,0.5-3.4,4.6-9.6,9.8
		c-2.2,1.9-4.8,3.9-7.9,6c-3,2.1-6.5,4.2-10.4,6.2c0-0.3,0-0.6,0-0.9c0-1.7,0.2-3.2,0.6-4.4c2.5-1.1,5-2.2,7.4-3.5
		c3.5-1.8,6.9-3.8,10.3-6C123.2,21.4,126.4,19,129.5,16.4z"/>
	<g>
		<path fill="#003333" d="M30.9,40.2c-0.3,1.3-0.7,2.3-1.4,3.1c-1.1,1.3-2.9,2-5.4,2H24c-2.6,0-4.5-0.7-5.6-2
			c-1.1-1.3-1.7-3.4-1.7-6.2V14.9H9v23.4c0,4.2,1.3,7.4,3.9,9.8c2.6,2.4,6.2,3.6,10.9,3.6c0.1,0,0.2,0,0.3,0c3,0,5.5-0.6,7.7-1.6
			c1.4-0.7,2.6-1.5,3.6-2.5L30.9,40.2z"/>
		<polygon fill="#003333" points="31.2,14.9 31.2,22.8 38.9,36 38.9,14.9 		"/>
		<path fill="#003333" d="M70.1,35.5c0-3.9-1.1-7-3.3-9.3c-2.2-2.2-5.2-3.4-9.2-3.4c-4.1,0-7.3,1.3-9.7,3.8
			c-2.3,2.5-3.5,6.1-3.5,10.8c0,2.8,0.5,5.3,1.5,7.3c0.6,1.2,1.3,2.2,2.3,3.2c2.4,2.4,5.7,3.6,9.9,3.7c0.2,0,0.4,0,0.5,0
			c2.2,0,4-0.2,5.5-0.5c1.5-0.3,2.9-0.8,4.2-1.5v-5.9c-1.6,0.8-3.2,1.3-4.7,1.7c-1.5,0.3-3.1,0.5-4.7,0.5c-0.3,0-0.6,0-0.9,0
			c-1.4-0.1-2.5-0.5-3.4-1.2c-0.2-0.2-0.5-0.4-0.7-0.6c-1.2-1.2-1.8-2.9-1.9-5h17.9V35.5z M52.3,34.2c0.1-1.9,0.7-3.3,1.6-4.3
			c0.9-1,2.2-1.5,3.8-1.5c1.6,0,2.9,0.5,3.8,1.5c0.9,1,1.4,2.5,1.5,4.3H52.3z"/>
		<path fill="#003333" d="M90.9,25.3c-2-1.6-4.8-2.4-8.6-2.4c-3.9,0-7.4,0.8-10.6,2.5l2.5,5.1c3-1.3,5.6-2,7.8-2
			c2.9,0,4.3,1.4,4.3,4.2v1.2l-4.8,0.1c-4.2,0.1-7.3,0.9-9.3,2.3c-2.1,1.4-3.1,3.6-3.1,6.5c0,2.8,0.8,5,2.3,6.5
			c1.5,1.5,3.6,2.3,6.3,2.3c2.2,0,3.9-0.3,5.3-0.9s2.7-1.7,3.9-3.3h0.2l1.5,3.8l0,0l0.2,0.5h5.1v-19C93.9,29.4,92.9,26.9,90.9,25.3z
			 M86.4,40.6c0,1.7-0.5,3-1.6,4c-1.1,1-2.5,1.5-4.2,1.5c-2.5,0-3.7-1.1-3.7-3.2c0-1.5,0.5-2.6,1.6-3.3c1.1-0.7,2.7-1.1,4.9-1.2
			l2.9-0.1V40.6z"/>
		<path fill="#003333" d="M101.6,37c0,0.1,0,0.3,0,0.5c0,0.3,0,0.6,0,0.9c0.1,2.3,0.6,4,1.4,5.2c0.9,1.4,2.3,2.1,4,2.1
			c1.9,0,3.4-0.6,4.3-1.7c0.9-1.1,1.4-3,1.5-5.7v-0.8c0-1.9-0.2-3.5-0.6-4.7c0,0,0-0.1,0-0.1c3.1-2.1,6.1-4.5,7.7-5.9v25h-5.6
			L114,51l0,0l-1.4-3.3h-0.3c-1.7,2.7-4.3,4.1-7.9,4.1c-3.1,0-5.6-1.2-7.4-3.5c-0.1-0.1-0.2-0.2-0.3-0.3c-1.2-1.6-2-3.6-2.4-6
			c-0.1-0.6-0.2-1.2-0.2-1.8c-0.1-0.9-0.1-1.8-0.1-2.7c0-0.4,0-0.7,0-1.1c0-0.2,0-0.5,0-0.7c0.2-3.1,0.9-5.7,2-7.7
			c0.2-0.4,0.5-0.8,0.8-1.2c1.9-2.5,4.5-3.8,7.8-3.8c3.3,0,5.9,1.2,7.7,3.6V14.9h7.6V23c-1.7,1.3-5,3.2-7.6,4.6
			c-1.5,0.8-2.7,1.4-3.4,1.8c0,0,0,0,0,0c-0.6-0.2-1.2-0.2-1.9-0.2c-1.7,0-3,0.7-3.9,2.2c-0.3,0.5-0.6,1.1-0.8,1.8c0,0,0,0,0,0
			C101.8,34.2,101.6,35.5,101.6,37z"/>
		<path fill="#FFFFFF" d="M121,24.6C121,24.6,121,24.6,121,24.6L121,24.6z"/>
		<g id="XMLID_7_">
			<polygon id="XMLID_9_" fill="#009B93" points="136,10.5 127.4,12.8 129.6,13.6 129.6,13.6 			"/>
			<polygon fill="#024F4D" points="131.5,14.3 130,15.5 130.3,13.8 			"/>
			<polygon fill="#009B93" points="136,10.5 133.5,15 132.3,14.5 131.5,14.3 130.3,13.8 			"/>
			<polygon id="XMLID_8_" fill="#003333" points="129.6,13.6 130,15.5 130.3,13.8 136,10.5 			"/>
		</g>
	</g>
</g>
</svg>
