<?xml version="1.0" standalone="no"?>
<!DOCTYPE svg PUBLIC "-//W3C//DTD SVG 20010904//EN"
 "http://www.w3.org/TR/2001/REC-SVG-20010904/DTD/svg10.dtd">
<svg version="1.0" xmlns="http://www.w3.org/2000/svg"
 width="4501.000000pt" height="1930.000000pt" viewBox="0 0 4501.000000 1930.000000"
 preserveAspectRatio="xMidYMid meet">

<g transform="translate(0.000000,1930.000000) scale(0.100000,-0.100000)"
fill="#000000" stroke="none">
<path d="M41280 15757 c-36 -11 -67 -24 -68 -29 -2 -4 -8 -6 -12 -3 -5 3 -73
-12 -152 -34 -1073 -295 -2184 -605 -2190 -610 -4 -3 134 -55 305 -115 172
-60 313 -110 314 -110 3 -2 123 -558 123 -569 0 -5 6 -2 14 5 46 47 429 363
439 363 6 1 14 -2 17 -6 3 -3 52 -22 110 -41 58 -20 189 -65 291 -101 l186
-65 311 586 c172 323 332 624 357 670 26 47 40 82 33 81 -7 -1 -42 -10 -78
-22z m-603 -303 c-3 -3 -12 -4 -19 -1 -8 3 -5 6 6 6 11 1 17 -2 13 -5z m-342
-163 c3 -5 0 -13 -6 -17 -7 -4 -9 -3 -5 4 3 5 0 13 -6 15 -9 4 -10 6 -1 6 6 1
14 -3 18 -8z m-101 -40 c4 -5 -3 -7 -14 -4 -23 6 -26 13 -6 13 8 0 17 -4 20
-9z m-79 -41 c8 -13 -5 -13 -25 0 -13 8 -13 10 2 10 9 0 20 -4 23 -10z m-150
-80 c-3 -5 -12 -10 -18 -10 -7 0 -6 4 3 10 19 12 23 12 15 0z m-335 -173 c11
-5 9 -6 -4 -4 -11 1 -21 9 -23 17 -3 10 -2 11 4 4 4 -6 15 -14 23 -17z m-80
-40 c11 -5 9 -6 -4 -4 -11 1 -21 9 -23 17 -3 10 -2 11 4 4 4 -6 15 -14 23 -17z
m-70 -27 c0 -5 -7 -7 -15 -4 -8 4 -15 8 -15 10 0 2 7 4 15 4 8 0 15 -4 15 -10z
m370 -154 c0 -7 -50 -13 -55 -7 -2 4 10 8 26 9 16 1 29 1 29 -2z m100 -56 c8
-5 11 -10 5 -10 -5 0 -17 5 -25 10 -8 5 -10 10 -5 10 6 0 17 -5 25 -10z"/>
<path d="M3630 10881 c0 -2419 3 -3639 11 -3743 57 -832 296 -1523 722 -2090
666 -886 1675 -1388 3032 -1508 469 -42 1131 -25 1590 41 977 139 1800 505
2395 1066 l94 89 -669 1102 c-367 606 -672 1102 -677 1102 -4 0 -8 -8 -8 -19
0 -29 -76 -287 -110 -376 -247 -633 -711 -974 -1470 -1080 -158 -22 -587 -31
-775 -16 -469 38 -858 164 -1126 365 -438 329 -672 902 -719 1761 -6 124 -10
1363 -10 3543 l0 3352 -1140 0 -1140 0 0 -3589z"/>
<path d="M10210 13294 l0 -1176 1136 -1946 c625 -1071 1140 -1951 1145 -1957
5 -5 9 1236 9 3123 l0 3132 -1145 0 -1145 0 0 -1176z"/>
<path d="M34338 12739 l-3 -1730 -75 93 c-325 403 -788 711 -1284 854 -269 77
-512 113 -831 121 -418 11 -747 -35 -1105 -153 -826 -273 -1464 -948 -1828
-1934 -162 -438 -277 -1011 -312 -1555 -21 -327 -25 -275 -31 425 -6 730 -8
753 -54 1019 -109 628 -395 1143 -830 1494 -644 520 -1572 757 -2806 716
-1002 -33 -1880 -243 -2741 -657 -87 -41 -158 -80 -158 -86 0 -8 723 -1496
737 -1515 1 -2 80 29 175 69 889 377 1666 552 2298 518 402 -21 702 -151 891
-385 106 -133 175 -286 220 -490 19 -85 22 -139 26 -415 l5 -316 -63 -6 c-35
-3 -314 -12 -619 -21 -1165 -33 -1496 -58 -2005 -151 -1054 -192 -1762 -589
-2117 -1186 l-43 -73 -6 675 c-4 374 -11 720 -17 775 -35 316 -66 501 -123
725 -146 583 -398 1060 -777 1474 -662 722 -1656 1082 -2907 1053 -701 -17
-1251 -140 -1770 -397 -356 -176 -643 -385 -911 -662 -638 -661 -979 -1512
-1086 -2708 -17 -194 -17 -928 0 -1110 77 -810 266 -1425 605 -1964 501 -800
1303 -1349 2308 -1581 426 -99 807 -137 1359 -137 1138 1 1913 148 2713 512
l137 63 0 873 0 874 -32 -14 c-261 -115 -406 -175 -550 -229 -679 -254 -1237
-367 -1967 -398 -489 -21 -856 29 -1175 160 -527 216 -897 663 -1051 1271 -37
147 -83 467 -85 593 0 4 1184 7 2630 7 1447 0 2630 -2 2630 -5 0 -2 -13 -37
-29 -78 -67 -167 -115 -357 -148 -572 -23 -152 -26 -728 -5 -895 83 -656 299
-1132 683 -1506 378 -367 856 -575 1471 -640 195 -20 768 -15 978 10 654 77
1080 243 1510 586 133 106 405 378 540 538 87 104 107 123 128 120 23 -3 40
-42 239 -553 117 -302 225 -587 240 -632 l27 -83 763 0 763 0 0 1518 c0 834 0
1717 0 1961 0 245 1 443 4 440 2 -2 9 -87 15 -189 64 -1023 308 -1849 729
-2477 481 -716 1090 -1104 1927 -1230 151 -22 708 -26 875 -5 802 100 1420
466 1847 1094 l67 98 50 0 51 0 197 -488 c109 -268 217 -540 240 -604 l43
-118 843 0 842 0 0 3710 c0 2041 -3 3710 -7 3710 -5 0 -38 -27 -76 -60 -587
-516 -1359 -1116 -2022 -1571 l-180 -124 27 -100 c59 -209 103 -468 129 -750
17 -188 23 -834 10 -1030 -68 -998 -315 -1543 -819 -1808 -225 -118 -548 -187
-872 -187 -848 1 -1392 548 -1565 1574 -49 294 -60 443 -60 866 0 404 6 504
46 785 69 480 218 883 432 1167 175 233 408 401 666 482 149 47 249 60 456 60
195 0 310 -11 473 -45 l93 -20 112 57 c170 86 632 330 912 482 974 526 1702
957 2148 1275 l97 69 0 1204 0 1204 -1130 0 -1130 0 -2 -1731z m-16092 -2269
c386 -31 693 -163 932 -398 241 -237 387 -536 451 -924 23 -139 44 -399 32
-411 -4 -4 -715 -6 -1581 -5 l-1575 3 3 45 c2 25 10 97 18 160 123 926 615
1464 1396 1529 149 12 181 12 324 1z m10631 -2357 c-3 -10 -5 -4 -5 12 0 17 2
24 5 18 2 -7 2 -21 0 -30z m-2250 -1100 c-4 -471 -4 -480 -30 -599 -72 -328
-190 -550 -416 -775 -189 -188 -372 -300 -616 -379 -246 -78 -543 -112 -805
-90 -164 13 -255 31 -382 74 -129 44 -227 104 -318 196 -178 179 -250 406
-237 745 30 742 516 1136 1542 1249 130 14 345 25 875 45 118 4 255 9 303 9
l89 2 -5 -477z"/>
</g>
</svg>
